<svg width="24" height="24" viewBox="0 0 24 24" fill="none" xmlns="http://www.w3.org/2000/svg">
<path fill-rule="evenodd" clip-rule="evenodd" d="M12 24C16.9706 24 21 19.9706 21 15C21 10.0294 16.9706 6 12 6C7.02944 6 3 10.0294 3 15C3 19.9706 7.02944 24 12 24ZM16.7682 12.6402C17.1218 12.2159 17.0645 11.5853 16.6402 11.2318C16.2159 10.8782 15.5853 10.9355 15.2318 11.3598L11.6338 15.6774C11.2871 16.0934 11.0922 16.3238 10.9366 16.4653L10.9306 16.4707L10.9242 16.4659C10.7564 16.339 10.5415 16.1272 10.1585 15.7443L8.70711 14.2929C8.31658 13.9024 7.68342 13.9024 7.29289 14.2929C6.90237 14.6834 6.90237 15.3166 7.29289 15.7071L8.74428 17.1585L8.78511 17.1993L8.78512 17.1993C9.11161 17.526 9.4257 17.8402 9.71794 18.0611C10.0453 18.3087 10.474 18.5415 11.0234 18.5165C11.5728 18.4916 11.9787 18.221 12.2823 17.9448C12.5534 17.6983 12.8377 17.3569 13.1333 17.0021L13.1333 17.0021L13.1703 16.9577L16.7682 12.6402Z" fill="#19AB72"/>
</svg>
