<svg width="20" height="20" viewBox="0 0 20 20" fill="none" xmlns="http://www.w3.org/2000/svg">
<path d="M1.66667 9.99992L1.27624 9.68757L1.02636 9.99992L1.27624 10.3123L1.66667 9.99992ZM9.16667 10.4999C9.44281 10.4999 9.66667 10.2761 9.66667 9.99992C9.66667 9.72378 9.44281 9.49992 9.16667 9.49992V10.4999ZM4.60957 5.5209L1.27624 9.68757L2.05711 10.3123L5.39044 6.1456L4.60957 5.5209ZM1.27624 10.3123L4.60957 14.4789L5.39044 13.8542L2.05711 9.68757L1.27624 10.3123ZM1.66667 10.4999H9.16667V9.49992H1.66667V10.4999Z" fill="#D9D9D9"/>
<path d="M8.33333 6.77669V6.61406C8.33333 5.1012 8.33333 4.34477 8.75099 3.80447C8.78748 3.75726 8.82607 3.71171 8.86664 3.66795C9.33092 3.16715 10.0771 3.04279 11.5693 2.79408V2.79408C14.5988 2.28917 16.1135 2.03672 17.1431 2.81546C17.2312 2.88215 17.3156 2.95366 17.3959 3.02967C18.3333 3.91721 18.3333 5.45282 18.3333 8.52404V11.4761C18.3333 14.5473 18.3333 16.083 17.3959 16.9705C17.3156 17.0465 17.2312 17.118 17.1431 17.1847C16.1135 17.9634 14.5983 17.7109 11.5678 17.2058V17.2058C10.0772 16.9574 9.33196 16.8332 8.86793 16.3336C8.82646 16.289 8.78705 16.2424 8.74983 16.1942C8.33333 15.6543 8.33333 14.899 8.33333 13.3884V13.3884" stroke="#D9D9D9"/>
</svg>
