<svg width="27" height="27" viewBox="0 0 27 27" fill="none" xmlns="http://www.w3.org/2000/svg">
<path d="M18.0234 12.0307L18.0162 16.0307L20.6047 16.0354C20.7716 16.0357 20.8647 16.2282 20.7614 16.3592L15.5036 23.0262L10.2699 16.3403C10.167 16.2089 10.2608 16.0167 10.4277 16.017L13.0162 16.0217L13.0271 10.0217" stroke="#D9D9D9"/>
<path d="M8.01984 14.0126L8.02706 10.0126L5.43856 10.008C5.27167 10.0077 5.17853 9.81515 5.28188 9.68411L10.5397 3.01715L15.7734 9.70304C15.8763 9.83445 15.7824 10.0266 15.6156 10.0263L13.0271 10.0216L13.0162 16.0216" stroke="#D9D9D9"/>
<rect x="0.499098" y="25.4991" width="25" height="25" rx="8.5" transform="rotate(-89.8966 0.499098 25.4991)" stroke="#363636"/>
</svg>
