<svg width="24" height="25" viewBox="0 0 24 25" fill="none" xmlns="http://www.w3.org/2000/svg">
<g id="Circle check">
<path id="Vector" d="M18.4056 7.42434C17.8864 6.73178 17.2571 6.12539 16.5429 5.63174C15.2176 4.71563 13.6474 4.21771 12 4.21771C7.58172 4.21771 4 7.79943 4 12.2177C4 16.636 7.58172 20.2177 12 20.2177C16.4183 20.2177 20 16.636 20 12.2177C20 11.8076 19.9692 11.4017 19.9084 11.0022C19.8252 10.4562 20.2005 9.94617 20.7465 9.86303C21.2924 9.77989 21.8025 10.1551 21.8856 10.7011C21.9616 11.2001 22 11.7067 22 12.2177C22 17.7406 17.5228 22.2177 12 22.2177C6.47715 22.2177 2 17.7406 2 12.2177C2 6.69486 6.47715 2.21771 12 2.21771C14.057 2.21771 16.0233 2.8412 17.6802 3.98655C18.4908 4.54689 19.2138 5.22333 19.8256 5.99137L21.2897 4.51384C21.6784 4.12154 22.3116 4.11865 22.7039 4.50738C23.0962 4.89612 23.0991 5.52928 22.7103 5.92158L13.4979 15.2186C12.7261 15.9974 11.4711 16.0097 10.6842 15.246L8.30352 12.9353C7.90722 12.5506 7.89777 11.9175 8.28242 11.5212C8.66707 11.1249 9.30017 11.1155 9.69648 11.5001L12.0772 13.8108L18.4056 7.42434L18.4056 7.42434Z" fill="#217E2E"/>
</g>
</svg>
