<svg width="20" height="22" viewBox="0 0 20 22" fill="none" xmlns="http://www.w3.org/2000/svg">
<g id="Group 138">
<path id="Subtract" d="M3.84185 4.49241L3.51521 4.11385L3.51521 4.11385L3.84185 4.49241ZM10.265 2.70319L10.7501 2.82416C10.7855 2.68233 10.757 2.53213 10.6722 2.41308C10.5874 2.29403 10.4547 2.21806 10.3091 2.20515L10.265 2.70319ZM4.06745 4.87815L4.18344 5.36451L4.18344 5.36451L4.06745 4.87815ZM9.77189 4.68078L9.69961 5.17553C9.95386 5.21267 10.1949 5.05106 10.257 4.80174L9.77189 4.68078ZM18.1121 8.37988L17.7814 8.75485L17.7814 8.75485L18.1121 8.37988ZM13.1679 5.5275L12.6828 5.40653C12.6206 5.65586 12.7576 5.9117 12.9995 5.99827L13.1679 5.5275ZM18.4924 8.1452L18.0263 8.32609L18.0263 8.32609L18.4924 8.1452ZM13.661 3.5499L13.8558 3.08942C13.7212 3.03247 13.5684 3.03727 13.4376 3.10257C13.3069 3.16787 13.2112 3.28712 13.1759 3.42894L13.661 3.5499ZM4.16849 4.87096C5.58908 3.64519 7.79181 2.98587 10.2208 3.20124L10.3091 2.20515C7.66629 1.97082 5.17918 2.67807 3.51521 4.11385L4.16849 4.87096ZM3.95146 4.39179C4.04939 4.36843 4.16267 4.41503 4.22089 4.51265C4.24942 4.56047 4.26795 4.62624 4.25736 4.70067C4.24608 4.77991 4.2061 4.83851 4.16849 4.87096L3.51521 4.11385C3.22374 4.36535 3.19674 4.74774 3.36207 5.02492C3.51953 5.28891 3.84083 5.44622 4.18344 5.36451L3.95146 4.39179ZM9.84418 4.18603C7.75337 3.88056 5.7352 3.96638 3.95145 4.39179L4.18344 5.36451C5.83393 4.97088 7.72372 4.88684 9.69961 5.17553L9.84418 4.18603ZM10.257 4.80174L10.7501 2.82416L9.77981 2.58223L9.28674 4.55982L10.257 4.80174ZM18.4428 8.0049C17.0676 6.79185 15.3259 5.76858 13.3364 5.05672L12.9995 5.99827C14.8797 6.671 16.5088 7.63242 17.7814 8.75485L18.4428 8.0049ZM18.0263 8.32609C18.0083 8.27978 18.0005 8.20927 18.0277 8.13401C18.0533 8.06332 18.1006 8.01396 18.1482 7.98512C18.2454 7.92627 18.3673 7.9383 18.4428 8.0049L17.7814 8.75485C18.0455 8.98784 18.403 8.99979 18.666 8.84062C18.9421 8.6735 19.0978 8.3232 18.9585 7.9643L18.0263 8.32609ZM13.4662 4.01039C15.712 4.96056 17.3474 6.57685 18.0263 8.32609L18.9585 7.9643C18.1634 5.91537 16.2994 4.12325 13.8558 3.08942L13.4662 4.01039ZM13.1759 3.42894L12.6828 5.40653L13.6531 5.64846L14.1461 3.67086L13.1759 3.42894Z" fill="#6763E3"/>
<rect id="Rectangle 103" x="10.481" y="4.93628" width="2" height="5" transform="rotate(14 10.481 4.93628)" stroke="#6763E3" stroke-linecap="round" stroke-linejoin="round"/>
<rect id="Rectangle 104" x="8.78662" y="9.66675" width="3" height="9.5" transform="rotate(14 8.78662 9.66675)" stroke="#6763E3" stroke-linecap="round" stroke-linejoin="round"/>
<rect id="Rectangle 102" x="10.3584" y="2.3291" width="3.5" height="2.75" transform="rotate(14 10.3584 2.3291)" stroke="#6763E3" stroke-linecap="round" stroke-linejoin="round"/>
</g>
</svg>
