<svg width="18" height="15" viewBox="0 0 18 15" fill="none" xmlns="http://www.w3.org/2000/svg">
<g clip-path="url(#clip0_380_234)">
<path d="M8.44867 12.4487L8.09512 12.8022L8.31286 13.02L8.6053 12.9235L8.44867 12.4487ZM4.55151 8.55149L4.07668 8.39487L3.98022 8.6873L4.19796 8.90505L4.55151 8.55149ZM15.9589 1.04121L16.4571 0.998191L16.4209 0.579236L16.0019 0.543061L15.9589 1.04121ZM8.80222 12.0951L4.90507 8.19794L4.19796 8.90505L8.09512 12.8022L8.80222 12.0951ZM15.0001 0.5C9.90736 0.5 5.58901 3.8101 4.07668 8.39487L5.02635 8.70812C6.40752 4.52099 10.3517 1.5 15.0001 1.5V0.5ZM16.0019 0.543061C15.6717 0.514545 15.3375 0.5 15.0001 0.5V1.5C15.3088 1.5 15.6142 1.51331 15.9159 1.53935L16.0019 0.543061ZM16.5001 2.00006C16.5001 1.66262 16.4856 1.32847 16.4571 0.998191L15.4608 1.08422C15.4868 1.38592 15.5001 1.69138 15.5001 2.00006H16.5001ZM8.6053 12.9235C13.19 11.4111 16.5001 7.09281 16.5001 2.00006H15.5001C15.5001 6.64849 12.4791 10.5926 8.29204 11.9738L8.6053 12.9235Z" fill="#6763E3"/>
<path d="M5 12L4 13" stroke="#6763E3" stroke-linecap="round"/>
<path d="M6.5 13.5L5.5 14.5" stroke="#6763E3" stroke-linecap="round"/>
<path d="M3.5 10.5L2.5 11.5" stroke="#6763E3" stroke-linecap="round"/>
<circle cx="10" cy="7" r="1" stroke="#6763E3"/>
<path d="M11 2L15 6" stroke="#6763E3" stroke-linecap="round"/>
<path d="M11 11.5V15L2 6H5.5" stroke="#6763E3" stroke-linecap="round" stroke-linejoin="round"/>
</g>
<defs>
<clipPath id="clip0_380_234">
<rect width="17.6441" height="15" fill="white"/>
</clipPath>
</defs>
</svg>
