<svg width="480" height="31" viewBox="0 0 480 31" fill="none" xmlns="http://www.w3.org/2000/svg">
<path d="M34.832 9.89844C31.5638 9.09115 28.4453 8.6875 25.4766 8.6875C20.6979 8.6875 17.6641 9.97656 16.375 12.5547C15.9844 13.3359 15.7891 14.2279 15.7891 15.2305C15.7891 17.418 16.3685 19.0846 17.5273 20.2305C18.6862 21.3763 20.2617 21.9492 22.2539 21.9492C23.543 21.9492 24.6172 21.6888 25.4766 21.168C26.349 20.6471 26.987 19.9961 27.3906 19.2148H22.7422L22.9961 13.5703C23.1003 13.5833 25.4635 13.6159 30.0859 13.668C34.7214 13.707 37.1888 13.7591 37.4883 13.8242V29L33.8164 29.1953L33.2305 25.2109C32.0977 26.6042 30.2031 27.7305 27.5469 28.5898C24.8906 29.4492 22.4232 29.8789 20.1445 29.8789C17.8659 29.8789 15.776 29.7031 13.875 29.3516C11.974 29 10.2031 28.4466 8.5625 27.6914C6.92188 26.9232 5.5026 25.9922 4.30469 24.8984C3.11979 23.7917 2.1888 22.4375 1.51172 20.8359C0.834635 19.2344 0.496094 17.3854 0.496094 15.2891C0.496094 13.1927 0.925781 11.2526 1.78516 9.46875C2.64453 7.6849 3.80339 6.21354 5.26172 5.05469C9.41536 1.73438 15.6328 0.0742188 23.9141 0.0742188C25.3073 0.0742188 27.1497 0.197917 29.4414 0.445312C31.7461 0.679688 33.543 0.959635 34.832 1.28516V9.89844ZM64.9102 18.4531C63.4909 13.8828 62.5599 10.7513 62.1172 9.05859C61.388 11.3503 60.6654 13.4206 59.9492 15.2695C59.2331 17.1185 58.8229 18.1797 58.7188 18.4531H64.9102ZM55.7891 25.6211L54.3242 29.293C53.6602 29.3841 53.0026 29.4297 52.3516 29.4297C51.7005 29.4297 48.3672 29.2865 42.3516 29C43.849 25.862 48.0156 16.5521 54.8516 1.07031C55.6719 1.04427 57.5013 0.972656 60.3398 0.855469C63.1914 0.72526 65.6719 0.660156 67.7812 0.660156C69.8906 0.660156 71.3424 0.790365 72.1367 1.05078C72.2148 1.3112 75.6328 9.29297 82.3906 24.9961L84.0312 28.8242C75.75 29.332 71.5247 29.5859 71.3555 29.5859C71.1992 29.5859 70.3594 29.5469 68.8359 29.4688C68.25 28.4141 67.7487 27.1836 67.332 25.7773C66.4987 25.6732 62.651 25.6211 55.7891 25.6211ZM135.438 28.9414L123.289 29.1758C122.794 24.2148 122.495 20.7839 122.391 18.8828L122.215 15.7969L114.129 28.5898C110.796 28.5898 108.888 28.5768 108.406 28.5508C105.802 23.3945 103.868 19.4102 102.605 16.5977L101.18 29.0781C99.8646 29.1172 97.9635 29.1367 95.4766 29.1367C93.0026 29.1367 90.5221 29.0651 88.0352 28.9219L88.2891 25.6211C88.4974 23.4727 88.9727 15.2435 89.7148 0.933594H89.8125C95.5547 0.933594 100.424 0.86849 104.422 0.738281L105.125 2.24219L111.414 13.7852L119.109 0.601562L133.426 0.5625C133.517 1.94271 133.927 7.64583 134.656 17.6719L135.301 26.5391L135.438 28.9414ZM176.102 29.1758H163.66L141.336 29.0195L141.668 22.1445C142.332 8.35547 142.664 1.28516 142.664 0.933594C144.227 0.86849 145.249 0.835938 145.73 0.835938H165.496C169.884 0.835938 173.432 0.809896 176.141 0.757812L175.34 8.12109C172.189 8.40755 165.913 8.55078 156.512 8.55078C156.473 8.86328 156.427 9.39062 156.375 10.1328C156.336 10.875 156.303 11.4349 156.277 11.8125C160.027 11.7474 162.645 11.7148 164.129 11.7148L168.426 11.832C168.426 12.4049 168.335 13.3945 168.152 14.8008C167.983 16.207 167.794 17.2943 167.586 18.0625C167.378 18.1146 165.757 18.1406 162.723 18.1406H156.023L155.809 21.9492L176.316 22.1836C176.316 24.6445 176.277 26.4023 176.199 27.457C176.134 28.4987 176.102 29.0716 176.102 29.1758ZM205.027 29C205.027 29 200.281 29.0391 190.789 29.1172C190.802 28.4141 190.841 27.3138 190.906 25.8164C190.984 24.319 191.03 23.2708 191.043 22.6719L191.434 0.894531H210.34L222.801 0.699219C223.934 0.699219 224.812 0.777344 225.438 0.933594C225.438 1.27214 225.372 1.85807 225.242 2.69141C225.125 3.51172 225.047 4.11719 225.008 4.50781L224.637 7.82812C223.634 7.97135 222.625 8.05599 221.609 8.08203C221.609 8.08203 216.362 8.14714 205.867 8.27734C205.789 9.16276 205.724 10.6406 205.672 12.7109C212.143 12.6458 215.828 12.6133 216.727 12.6133C217.638 12.6133 218.471 12.6914 219.227 12.8477C219.227 13.7721 218.934 15.7122 218.348 18.668C216.564 18.8503 214.611 18.9479 212.488 18.9609L205.398 19L205.027 29ZM262.859 29.1758H250.418L228.094 29.0195L228.426 22.1445C229.09 8.35547 229.422 1.28516 229.422 0.933594C230.984 0.86849 232.007 0.835938 232.488 0.835938H252.254C256.642 0.835938 260.19 0.809896 262.898 0.757812L262.098 8.12109C258.947 8.40755 252.671 8.55078 243.27 8.55078C243.23 8.86328 243.185 9.39062 243.133 10.1328C243.094 10.875 243.061 11.4349 243.035 11.8125C246.785 11.7474 249.402 11.7148 250.887 11.7148L255.184 11.832C255.184 12.4049 255.092 13.3945 254.91 14.8008C254.741 16.207 254.552 17.2943 254.344 18.0625C254.135 18.1146 252.514 18.1406 249.48 18.1406H242.781L242.566 21.9492L263.074 22.1836C263.074 24.6445 263.035 26.4023 262.957 27.457C262.892 28.4987 262.859 29.0716 262.859 29.1758ZM288.621 18.4531C287.202 13.8828 286.271 10.7513 285.828 9.05859C285.099 11.3503 284.376 13.4206 283.66 15.2695C282.944 17.1185 282.534 18.1797 282.43 18.4531H288.621ZM279.5 25.6211L278.035 29.293C277.371 29.3841 276.714 29.4297 276.062 29.4297C275.411 29.4297 272.078 29.2865 266.062 29C267.56 25.862 271.727 16.5521 278.562 1.07031C279.383 1.04427 281.212 0.972656 284.051 0.855469C286.902 0.72526 289.383 0.660156 291.492 0.660156C293.602 0.660156 295.053 0.790365 295.848 1.05078C295.926 1.3112 299.344 9.29297 306.102 24.9961L307.742 28.8242C299.461 29.332 295.236 29.5859 295.066 29.5859C294.91 29.5859 294.07 29.5469 292.547 29.4688C291.961 28.4141 291.46 27.1836 291.043 25.7773C290.21 25.6732 286.362 25.6211 279.5 25.6211ZM333.289 28.9219C333.289 28.9219 328.836 29.0456 319.93 29.293L320.34 15.9336C320.444 12.7044 320.542 10.2174 320.633 8.47266H309.969C309.995 7.92578 310.092 6.76042 310.262 4.97656C310.431 3.19271 310.587 1.84505 310.73 0.933594C322.801 0.777344 331.186 0.699219 335.887 0.699219C340.6 0.699219 343.823 0.71875 345.555 0.757812C345.151 4.22135 344.689 6.79297 344.168 8.47266H333.992L333.875 12.6914C333.471 22.1576 333.27 27.2292 333.27 27.9062C333.27 28.5703 333.276 28.9089 333.289 28.9219ZM369.812 29.8789C364.956 29.8789 361.186 29.5208 358.504 28.8047C352.397 27.1901 349.344 23.401 349.344 17.4375L349.461 9.78125C349.5 8.60938 349.539 7.0599 349.578 5.13281C349.63 3.20573 349.721 1.81901 349.852 0.972656L359.305 0.933594L365.34 0.816406C365.314 1.18099 365.301 1.70833 365.301 2.39844C365.301 3.08854 365.294 3.58984 365.281 3.90234L364.656 17.0664C364.656 18.6419 365.158 19.8594 366.16 20.7188C367.176 21.5781 368.536 22.0078 370.242 22.0078C371.961 22.0078 373.354 21.4089 374.422 20.2109C375.503 19.013 376.082 17.3203 376.16 15.1328L376.668 1.1875C380.066 1.08333 385.105 0.985677 391.785 0.894531C391.785 3.36849 391.668 6.74089 391.434 11.0117C391.199 15.2695 390.997 17.7174 390.828 18.3555C389.982 21.4414 388.4 23.8438 386.082 25.5625C383.764 27.2682 381.206 28.4141 378.406 29C375.607 29.5859 372.742 29.8789 369.812 29.8789ZM422.977 10.3672C422.977 8.85677 421.401 8.10156 418.25 8.10156C417.234 8.10156 415.737 8.14062 413.758 8.21875L413.426 13.7266C413.973 13.6615 414.845 13.5768 416.043 13.4727C417.254 13.3685 418.361 13.2448 419.363 13.1016C420.366 12.9453 421.219 12.6654 421.922 12.2617C422.625 11.8451 422.977 11.2135 422.977 10.3672ZM423.641 30.6797C423.159 29.7812 422.202 27.8607 420.77 24.918C419.35 21.9753 418.4 19.931 417.918 18.7852L413.133 19.1172L412.742 28.8242C412.742 28.9284 412.697 28.987 412.605 29C408.647 29.0651 405.691 29.1302 403.738 29.1953L399.168 29.3516C399.168 27.4505 399.298 23.1276 399.559 16.3828L399.676 13.1602L400.262 0.972656C400.275 0.985677 400.353 0.979167 400.496 0.953125C402.736 0.640625 406.785 0.484375 412.645 0.484375C418.504 0.484375 422.189 0.497396 423.699 0.523438C425.223 0.575521 426.72 0.71875 428.191 0.953125C433.973 1.8776 436.863 4.37109 436.863 8.43359C436.863 10.7122 436.167 12.5091 434.773 13.8242C433.393 15.1263 431.766 16.0898 429.891 16.7148C430.724 17.6654 432.319 19.7552 434.676 22.9844C437.046 26.2005 438.452 28.082 438.895 28.6289L423.641 30.6797ZM479.148 29.1758H466.707L444.383 29.0195L444.715 22.1445C445.379 8.35547 445.711 1.28516 445.711 0.933594C447.273 0.86849 448.296 0.835938 448.777 0.835938H468.543C472.931 0.835938 476.479 0.809896 479.188 0.757812L478.387 8.12109C475.236 8.40755 468.96 8.55078 459.559 8.55078C459.52 8.86328 459.474 9.39062 459.422 10.1328C459.383 10.875 459.35 11.4349 459.324 11.8125C463.074 11.7474 465.691 11.7148 467.176 11.7148L471.473 11.832C471.473 12.4049 471.382 13.3945 471.199 14.8008C471.03 16.207 470.841 17.2943 470.633 18.0625C470.424 18.1146 468.803 18.1406 465.77 18.1406H459.07L458.855 21.9492L479.363 22.1836C479.363 24.6445 479.324 26.4023 479.246 27.457C479.181 28.4987 479.148 29.0716 479.148 29.1758Z" fill="white"/>
<path d="M34.832 9.89844C31.5638 9.09115 28.4453 8.6875 25.4766 8.6875C20.6979 8.6875 17.6641 9.97656 16.375 12.5547C15.9844 13.3359 15.7891 14.2279 15.7891 15.2305C15.7891 17.418 16.3685 19.0846 17.5273 20.2305C18.6862 21.3763 20.2617 21.9492 22.2539 21.9492C23.543 21.9492 24.6172 21.6888 25.4766 21.168C26.349 20.6471 26.987 19.9961 27.3906 19.2148H22.7422L22.9961 13.5703C23.1003 13.5833 25.4635 13.6159 30.0859 13.668C34.7214 13.707 37.1888 13.7591 37.4883 13.8242V29L33.8164 29.1953L33.2305 25.2109C32.0977 26.6042 30.2031 27.7305 27.5469 28.5898C24.8906 29.4492 22.4232 29.8789 20.1445 29.8789C17.8659 29.8789 15.776 29.7031 13.875 29.3516C11.974 29 10.2031 28.4466 8.5625 27.6914C6.92188 26.9232 5.5026 25.9922 4.30469 24.8984C3.11979 23.7917 2.1888 22.4375 1.51172 20.8359C0.834635 19.2344 0.496094 17.3854 0.496094 15.2891C0.496094 13.1927 0.925781 11.2526 1.78516 9.46875C2.64453 7.6849 3.80339 6.21354 5.26172 5.05469C9.41536 1.73438 15.6328 0.0742188 23.9141 0.0742188C25.3073 0.0742188 27.1497 0.197917 29.4414 0.445312C31.7461 0.679688 33.543 0.959635 34.832 1.28516V9.89844ZM64.9102 18.4531C63.4909 13.8828 62.5599 10.7513 62.1172 9.05859C61.388 11.3503 60.6654 13.4206 59.9492 15.2695C59.2331 17.1185 58.8229 18.1797 58.7188 18.4531H64.9102ZM55.7891 25.6211L54.3242 29.293C53.6602 29.3841 53.0026 29.4297 52.3516 29.4297C51.7005 29.4297 48.3672 29.2865 42.3516 29C43.849 25.862 48.0156 16.5521 54.8516 1.07031C55.6719 1.04427 57.5013 0.972656 60.3398 0.855469C63.1914 0.72526 65.6719 0.660156 67.7812 0.660156C69.8906 0.660156 71.3424 0.790365 72.1367 1.05078C72.2148 1.3112 75.6328 9.29297 82.3906 24.9961L84.0312 28.8242C75.75 29.332 71.5247 29.5859 71.3555 29.5859C71.1992 29.5859 70.3594 29.5469 68.8359 29.4688C68.25 28.4141 67.7487 27.1836 67.332 25.7773C66.4987 25.6732 62.651 25.6211 55.7891 25.6211ZM135.438 28.9414L123.289 29.1758C122.794 24.2148 122.495 20.7839 122.391 18.8828L122.215 15.7969L114.129 28.5898C110.796 28.5898 108.888 28.5768 108.406 28.5508C105.802 23.3945 103.868 19.4102 102.605 16.5977L101.18 29.0781C99.8646 29.1172 97.9635 29.1367 95.4766 29.1367C93.0026 29.1367 90.5221 29.0651 88.0352 28.9219L88.2891 25.6211C88.4974 23.4727 88.9727 15.2435 89.7148 0.933594H89.8125C95.5547 0.933594 100.424 0.86849 104.422 0.738281L105.125 2.24219L111.414 13.7852L119.109 0.601562L133.426 0.5625C133.517 1.94271 133.927 7.64583 134.656 17.6719L135.301 26.5391L135.438 28.9414ZM176.102 29.1758H163.66L141.336 29.0195L141.668 22.1445C142.332 8.35547 142.664 1.28516 142.664 0.933594C144.227 0.86849 145.249 0.835938 145.73 0.835938H165.496C169.884 0.835938 173.432 0.809896 176.141 0.757812L175.34 8.12109C172.189 8.40755 165.913 8.55078 156.512 8.55078C156.473 8.86328 156.427 9.39062 156.375 10.1328C156.336 10.875 156.303 11.4349 156.277 11.8125C160.027 11.7474 162.645 11.7148 164.129 11.7148L168.426 11.832C168.426 12.4049 168.335 13.3945 168.152 14.8008C167.983 16.207 167.794 17.2943 167.586 18.0625C167.378 18.1146 165.757 18.1406 162.723 18.1406H156.023L155.809 21.9492L176.316 22.1836C176.316 24.6445 176.277 26.4023 176.199 27.457C176.134 28.4987 176.102 29.0716 176.102 29.1758ZM205.027 29C205.027 29 200.281 29.0391 190.789 29.1172C190.802 28.4141 190.841 27.3138 190.906 25.8164C190.984 24.319 191.03 23.2708 191.043 22.6719L191.434 0.894531H210.34L222.801 0.699219C223.934 0.699219 224.812 0.777344 225.438 0.933594C225.438 1.27214 225.372 1.85807 225.242 2.69141C225.125 3.51172 225.047 4.11719 225.008 4.50781L224.637 7.82812C223.634 7.97135 222.625 8.05599 221.609 8.08203C221.609 8.08203 216.362 8.14714 205.867 8.27734C205.789 9.16276 205.724 10.6406 205.672 12.7109C212.143 12.6458 215.828 12.6133 216.727 12.6133C217.638 12.6133 218.471 12.6914 219.227 12.8477C219.227 13.7721 218.934 15.7122 218.348 18.668C216.564 18.8503 214.611 18.9479 212.488 18.9609L205.398 19L205.027 29ZM262.859 29.1758H250.418L228.094 29.0195L228.426 22.1445C229.09 8.35547 229.422 1.28516 229.422 0.933594C230.984 0.86849 232.007 0.835938 232.488 0.835938H252.254C256.642 0.835938 260.19 0.809896 262.898 0.757812L262.098 8.12109C258.947 8.40755 252.671 8.55078 243.27 8.55078C243.23 8.86328 243.185 9.39062 243.133 10.1328C243.094 10.875 243.061 11.4349 243.035 11.8125C246.785 11.7474 249.402 11.7148 250.887 11.7148L255.184 11.832C255.184 12.4049 255.092 13.3945 254.91 14.8008C254.741 16.207 254.552 17.2943 254.344 18.0625C254.135 18.1146 252.514 18.1406 249.48 18.1406H242.781L242.566 21.9492L263.074 22.1836C263.074 24.6445 263.035 26.4023 262.957 27.457C262.892 28.4987 262.859 29.0716 262.859 29.1758ZM288.621 18.4531C287.202 13.8828 286.271 10.7513 285.828 9.05859C285.099 11.3503 284.376 13.4206 283.66 15.2695C282.944 17.1185 282.534 18.1797 282.43 18.4531H288.621ZM279.5 25.6211L278.035 29.293C277.371 29.3841 276.714 29.4297 276.062 29.4297C275.411 29.4297 272.078 29.2865 266.062 29C267.56 25.862 271.727 16.5521 278.562 1.07031C279.383 1.04427 281.212 0.972656 284.051 0.855469C286.902 0.72526 289.383 0.660156 291.492 0.660156C293.602 0.660156 295.053 0.790365 295.848 1.05078C295.926 1.3112 299.344 9.29297 306.102 24.9961L307.742 28.8242C299.461 29.332 295.236 29.5859 295.066 29.5859C294.91 29.5859 294.07 29.5469 292.547 29.4688C291.961 28.4141 291.46 27.1836 291.043 25.7773C290.21 25.6732 286.362 25.6211 279.5 25.6211ZM333.289 28.9219C333.289 28.9219 328.836 29.0456 319.93 29.293L320.34 15.9336C320.444 12.7044 320.542 10.2174 320.633 8.47266H309.969C309.995 7.92578 310.092 6.76042 310.262 4.97656C310.431 3.19271 310.587 1.84505 310.73 0.933594C322.801 0.777344 331.186 0.699219 335.887 0.699219C340.6 0.699219 343.823 0.71875 345.555 0.757812C345.151 4.22135 344.689 6.79297 344.168 8.47266H333.992L333.875 12.6914C333.471 22.1576 333.27 27.2292 333.27 27.9062C333.27 28.5703 333.276 28.9089 333.289 28.9219ZM369.812 29.8789C364.956 29.8789 361.186 29.5208 358.504 28.8047C352.397 27.1901 349.344 23.401 349.344 17.4375L349.461 9.78125C349.5 8.60938 349.539 7.0599 349.578 5.13281C349.63 3.20573 349.721 1.81901 349.852 0.972656L359.305 0.933594L365.34 0.816406C365.314 1.18099 365.301 1.70833 365.301 2.39844C365.301 3.08854 365.294 3.58984 365.281 3.90234L364.656 17.0664C364.656 18.6419 365.158 19.8594 366.16 20.7188C367.176 21.5781 368.536 22.0078 370.242 22.0078C371.961 22.0078 373.354 21.4089 374.422 20.2109C375.503 19.013 376.082 17.3203 376.16 15.1328L376.668 1.1875C380.066 1.08333 385.105 0.985677 391.785 0.894531C391.785 3.36849 391.668 6.74089 391.434 11.0117C391.199 15.2695 390.997 17.7174 390.828 18.3555C389.982 21.4414 388.4 23.8438 386.082 25.5625C383.764 27.2682 381.206 28.4141 378.406 29C375.607 29.5859 372.742 29.8789 369.812 29.8789ZM422.977 10.3672C422.977 8.85677 421.401 8.10156 418.25 8.10156C417.234 8.10156 415.737 8.14062 413.758 8.21875L413.426 13.7266C413.973 13.6615 414.845 13.5768 416.043 13.4727C417.254 13.3685 418.361 13.2448 419.363 13.1016C420.366 12.9453 421.219 12.6654 421.922 12.2617C422.625 11.8451 422.977 11.2135 422.977 10.3672ZM423.641 30.6797C423.159 29.7812 422.202 27.8607 420.77 24.918C419.35 21.9753 418.4 19.931 417.918 18.7852L413.133 19.1172L412.742 28.8242C412.742 28.9284 412.697 28.987 412.605 29C408.647 29.0651 405.691 29.1302 403.738 29.1953L399.168 29.3516C399.168 27.4505 399.298 23.1276 399.559 16.3828L399.676 13.1602L400.262 0.972656C400.275 0.985677 400.353 0.979167 400.496 0.953125C402.736 0.640625 406.785 0.484375 412.645 0.484375C418.504 0.484375 422.189 0.497396 423.699 0.523438C425.223 0.575521 426.72 0.71875 428.191 0.953125C433.973 1.8776 436.863 4.37109 436.863 8.43359C436.863 10.7122 436.167 12.5091 434.773 13.8242C433.393 15.1263 431.766 16.0898 429.891 16.7148C430.724 17.6654 432.319 19.7552 434.676 22.9844C437.046 26.2005 438.452 28.082 438.895 28.6289L423.641 30.6797ZM479.148 29.1758H466.707L444.383 29.0195L444.715 22.1445C445.379 8.35547 445.711 1.28516 445.711 0.933594C447.273 0.86849 448.296 0.835938 448.777 0.835938H468.543C472.931 0.835938 476.479 0.809896 479.188 0.757812L478.387 8.12109C475.236 8.40755 468.96 8.55078 459.559 8.55078C459.52 8.86328 459.474 9.39062 459.422 10.1328C459.383 10.875 459.35 11.4349 459.324 11.8125C463.074 11.7474 465.691 11.7148 467.176 11.7148L471.473 11.832C471.473 12.4049 471.382 13.3945 471.199 14.8008C471.03 16.207 470.841 17.2943 470.633 18.0625C470.424 18.1146 468.803 18.1406 465.77 18.1406H459.07L458.855 21.9492L479.363 22.1836C479.363 24.6445 479.324 26.4023 479.246 27.457C479.181 28.4987 479.148 29.0716 479.148 29.1758Z" fill="url(#paint0_linear_13_3323)"/>
<defs>
<linearGradient id="paint0_linear_13_3323" x1="-1.99511" y1="14.9959" x2="481.023" y2="14.9959" gradientUnits="userSpaceOnUse">
<stop stop-color="#2AF598"/>
<stop offset="0.2264" stop-color="#21E2AE"/>
<stop offset="0.7249" stop-color="#0FD990"/>
<stop offset="0.9785" stop-color="#08EA3A"/>
</linearGradient>
</defs>
</svg>
