<svg width="282" height="144" viewBox="0 0 282 144" fill="none" xmlns="http://www.w3.org/2000/svg">
<path d="M116.322 99.83H87.9694C83.2213 99.83 79.3777 95.9864 79.3777 91.2383C79.3777 86.4903 83.2213 82.6466 87.9694 82.6466H116.299C121.048 82.6466 124.891 86.4903 124.891 91.2383C124.914 95.9864 121.07 99.83 116.322 99.83Z" fill="url(#paint0_linear_13_3325)"/>
<path d="M116.322 82.6693H98.7996V90.7862L98.8222 91.0575C99.0483 94.155 99.8848 97.1395 101.241 99.8301H116.3C121.048 99.8301 124.891 95.9864 124.891 91.2384C124.891 86.4903 121.07 82.6693 116.322 82.6693Z" fill="url(#paint1_linear_13_3325)"/>
<path d="M126.112 128.816C130.86 128.816 134.704 124.972 134.704 120.224C134.704 104.623 140.695 100.26 140.763 100.237C145.059 98.2247 146.913 93.1149 144.901 88.8191C142.889 84.5232 137.779 82.6692 133.483 84.6815C131.855 85.4502 117.543 92.934 117.543 120.224C117.52 124.972 121.364 128.816 126.112 128.816Z" fill="url(#paint2_linear_13_3325)"/>
<path d="M133.46 84.6815C131.991 85.3598 120.324 91.487 117.927 112.446C121.138 113.283 126.903 114.617 134.862 115.793C135.857 103.787 140.695 100.26 140.741 100.237C145.036 98.2247 146.891 93.1149 144.878 88.8191C142.866 84.5232 137.756 82.6692 133.46 84.6815Z" fill="url(#paint3_linear_13_3325)"/>
<path d="M210.628 128.816C205.88 128.816 202.036 124.972 202.036 120.224C202.036 104.623 196.044 100.26 195.976 100.237C191.681 98.2247 189.827 93.1149 191.839 88.8191C193.851 84.5232 198.961 82.6692 203.257 84.6815C204.885 85.4502 219.197 92.934 219.197 120.224C219.219 124.972 215.353 128.816 210.628 128.816Z" fill="url(#paint4_linear_13_3325)"/>
<path d="M203.257 84.6815C198.961 82.6692 193.851 84.5232 191.839 88.8191C189.827 93.1149 191.681 98.2247 195.976 100.237C196.022 100.26 200.883 103.787 201.855 115.838C207.53 115.069 213.182 114.119 218.835 112.966C216.597 91.5775 204.726 85.3824 203.257 84.6815Z" fill="url(#paint5_linear_13_3325)"/>
<path d="M275.869 81.2414C278.665 78.4924 278.952 74.25 276.509 71.7656C274.067 69.2813 269.82 69.4958 267.024 72.2447C264.228 74.9937 263.941 79.2361 266.384 81.7205C268.826 84.2048 273.073 83.9903 275.869 81.2414Z" fill="#85BB04"/>
<path d="M216.393 101.435V67.0911H216.302C222.045 67.0232 240.02 64.6718 246.916 54.9044C252.388 47.1492 263.105 45.3178 270.86 50.7894C278.615 56.261 280.446 66.978 274.975 74.7332C256.638 100.689 220.463 101.435 216.393 101.435Z" fill="url(#paint6_linear_13_3325)"/>
<path d="M239.229 98.1344C239.455 97.5917 239.659 97.0491 239.817 96.4839C243.027 95.6925 245.831 93.8159 247.775 91.1027C249.923 88.0956 250.783 84.4328 250.172 80.7927C249.629 77.5368 248.002 74.7106 245.673 72.6757C245.673 72.3818 245.673 65.9606 244.316 57.8211C236.267 65.1693 221.412 67.0685 216.28 67.1137H216.37V101.458C218.36 101.435 227.856 101.255 239.229 98.1344Z" fill="url(#paint7_linear_13_3325)"/>
<path d="M251.958 67.272C256.828 67.272 260.776 63.3241 260.776 58.4542C260.776 53.5842 256.828 49.6364 251.958 49.6364C247.088 49.6364 243.14 53.5842 243.14 58.4542C243.14 63.3241 247.088 67.272 251.958 67.272Z" fill="white"/>
<path d="M247.572 62.5465C244.949 58.4315 246.17 52.9826 250.263 50.3598C250.692 50.0885 251.144 49.8624 251.619 49.6589C250.104 49.7267 248.589 50.1563 247.233 51.0155C243.118 53.6382 241.919 59.0872 244.542 63.2022C246.871 66.865 251.483 68.2215 255.372 66.5936C252.32 66.7293 249.313 65.2823 247.572 62.5465Z" fill="#9CDD05"/>
<path d="M106.057 53.3669L106.102 90.4922C106.532 96.5742 110.602 102.046 116.774 103.945C117.95 104.307 137.055 110.027 167.149 110.027C182.297 110.027 200.227 108.58 220.033 104.262C226.771 102.792 231.496 97.049 231.949 90.4922L231.994 53.3669H106.057Z" fill="url(#paint8_linear_13_3325)"/>
<path opacity="0.2" d="M146.393 90.4922H146.348V53.3669H106.057L106.102 90.4922C106.532 96.5742 110.602 102.046 116.774 103.945C117.95 104.307 137.055 110.027 167.149 110.027C173.457 110.027 180.263 109.778 187.475 109.168C169.093 107.563 157.947 104.216 157.065 103.945C150.892 102.046 146.823 96.5516 146.393 90.4922Z" fill="white"/>
<path d="M236.538 83.0536C237.239 79.1421 237.601 75.1402 237.601 71.0252C237.601 33.606 207.259 3.28632 169.862 3.28632C132.466 3.28632 102.101 33.606 102.101 71.0252C102.101 75.1176 102.462 79.1421 103.163 83.0536H236.538Z" fill="#957856"/>
<path d="M102.101 71.0252C102.101 75.1175 102.462 79.1421 103.163 83.0536H129.775C129.074 79.1421 128.712 75.1402 128.712 71.0252C128.712 38.1732 152.113 10.7701 183.157 4.57502C178.861 3.71585 174.407 3.26366 169.839 3.26366C132.443 3.28627 102.101 33.606 102.101 71.0252Z" fill="#806749"/>
<path d="M169.839 3.28613C132.42 3.28613 102.101 33.6285 102.101 71.025C102.101 75.1174 102.462 79.142 103.163 83.0534H169.839V3.28613Z" fill="#806749"/>
<path d="M102.101 71.0252C102.101 75.1176 102.462 79.1421 103.163 83.0536H129.775C129.074 79.1421 128.712 75.1402 128.712 71.0252C128.712 43.0569 145.67 19.0453 169.839 8.71266V3.28632C132.443 3.28632 102.101 33.606 102.101 71.0252Z" fill="#6A563D"/>
<path d="M149.038 45.6344C149.038 44.5492 148.202 43.4639 147.614 42.5595L132.013 18.141C131.493 17.327 130.792 16.6939 130.001 16.2417C113.089 28.5641 102.101 48.5059 102.101 71.0478C102.101 75.1402 102.462 79.1647 103.163 83.0762H149.038V45.6344Z" fill="#957856"/>
<path d="M130.001 16.2417C113.089 28.5641 102.101 48.5059 102.101 71.0252C102.101 75.1176 102.462 79.1421 103.163 83.0536H129.775C129.074 79.1421 128.712 75.1402 128.712 71.0252C128.712 56.555 133.257 43.1474 140.967 32.159L132.013 18.141C131.516 17.327 130.815 16.6939 130.001 16.2417Z" fill="#806749"/>
<path d="M190.641 45.6344C190.641 44.5491 191.477 43.4639 192.065 42.5595L207.666 18.1409C208.186 17.327 208.887 16.6939 209.678 16.2417C226.59 28.564 237.578 48.5059 237.578 71.0478C237.578 75.1402 237.217 79.1647 236.516 83.0762H190.641V45.6344Z" fill="#806749"/>
<path d="M191.183 88.0051V45.6344C191.183 44.5491 190.867 43.4639 190.279 42.5595L174.678 18.1409C173.615 16.4904 171.806 15.4956 169.862 15.4956C167.918 15.4956 166.086 16.4904 165.046 18.1409L149.445 42.5595C148.858 43.4865 148.541 44.5491 148.541 45.6344V88.0051H191.183Z" fill="url(#paint9_linear_13_3325)"/>
<path d="M167.985 94.4037C128.961 94.4037 103.525 88.9773 101.942 88.6382C98.8447 87.9599 96.9002 84.9076 97.5785 81.81C98.2568 78.7125 101.309 76.7681 104.407 77.4464C105.13 77.6046 161.926 89.633 235.611 77.4011C238.731 76.8811 241.671 78.9838 242.191 82.104C242.711 85.2241 240.608 88.1634 237.488 88.6834C211.668 92.9793 188.018 94.4037 167.985 94.4037Z" fill="#5F4D37"/>
<path d="M101.942 88.6382C103.118 88.8869 117.362 91.9392 140.537 93.4993C138.774 92.0749 137.598 89.4747 137.892 87.1911C138.231 84.7493 139.588 82.6692 142.052 82.0361C118.9 80.5213 104.746 77.5368 104.384 77.4463C101.287 76.768 98.2343 78.7351 97.556 81.81C96.9003 84.9076 98.8448 87.9599 101.942 88.6382Z" fill="#554431"/>
<path d="M222.995 128.816C218.247 128.816 214.403 124.972 214.403 120.224C214.403 104.623 208.412 100.26 208.344 100.237C204.048 98.2247 202.194 93.1149 204.206 88.819C206.219 84.5232 211.328 82.6692 215.624 84.6814C217.252 85.4502 231.564 92.934 231.564 120.224C231.587 124.972 227.743 128.816 222.995 128.816Z" fill="url(#paint10_linear_13_3325)"/>
<path d="M114.084 128.816C118.832 128.816 122.675 124.972 122.675 120.224C122.675 104.623 128.667 100.26 128.735 100.237C133.031 98.2247 134.885 93.1149 132.872 88.8191C130.86 84.5232 125.75 82.6692 121.455 84.6815C119.827 85.4502 105.515 92.934 105.515 120.224C105.492 124.972 109.336 128.816 114.084 128.816Z" fill="url(#paint11_linear_13_3325)"/>
<path d="M114.445 121.784C114.445 94.4942 128.757 87.0103 130.385 86.2416C130.521 86.1738 130.657 86.1286 130.792 86.0607C128.305 83.845 124.642 83.1893 121.432 84.6815C119.804 85.4503 105.492 92.9341 105.492 120.224C105.492 124.972 109.336 128.816 114.084 128.816C115.237 128.816 116.322 128.59 117.317 128.183C115.576 126.623 114.445 124.339 114.445 121.784Z" fill="url(#paint12_linear_13_3325)"/>
<path d="M222.633 121.784C222.633 94.4942 208.321 87.0104 206.693 86.2416C206.558 86.1738 206.422 86.1286 206.286 86.0607C208.773 83.845 212.436 83.1893 215.647 84.6815C217.275 85.4503 231.587 92.9341 231.587 120.224C231.587 124.972 227.743 128.816 222.995 128.816C221.842 128.816 220.757 128.59 219.762 128.183C221.503 126.623 222.633 124.339 222.633 121.784Z" fill="url(#paint13_linear_13_3325)"/>
<path d="M222.588 56.5097C221.322 56.5097 220.124 55.6958 219.694 54.4296C217.863 48.9354 215.127 43.7804 211.577 39.1454C210.56 37.8114 210.808 35.9122 212.142 34.8722C213.476 33.8547 215.376 34.1034 216.416 35.4374C220.372 40.615 223.425 46.3353 225.46 52.4852C226.002 54.0679 225.12 55.8088 223.538 56.3288C223.244 56.4645 222.905 56.5097 222.588 56.5097Z" fill="#6A563D"/>
<path d="M225.437 73.9193C223.764 73.9193 222.407 72.5627 222.385 70.8896C222.385 68.0408 222.136 65.1919 221.684 62.4109C221.412 60.7604 222.52 59.1777 224.193 58.9064C225.844 58.6351 227.427 59.743 227.698 61.4161C228.218 64.5136 228.467 67.7016 228.489 70.867C228.489 72.5627 227.11 73.9193 225.437 73.9193Z" fill="#6A563D"/>
<path d="M251.958 61.5065C252.75 61.5065 253.541 61.1899 254.106 60.6247C254.671 60.0594 254.988 59.2681 254.988 58.4768C254.988 57.6854 254.671 56.8941 254.106 56.3288C253.541 55.7636 252.75 55.4471 251.958 55.4471C251.167 55.4471 250.375 55.7636 249.81 56.3288C249.245 56.8941 248.928 57.6854 248.928 58.4768C248.928 59.2681 249.245 60.0594 249.81 60.6247C250.375 61.1899 251.167 61.5065 251.958 61.5065Z" fill="#3E3D42"/>
<path d="M280.04 71.4774C281.17 68.2668 281.464 64.8075 280.876 61.3708C279.949 56.0575 277.032 51.3999 272.624 48.2797C262.879 41.429 252.998 46.2901 252.682 46.6066C252.433 46.584 249.742 45.7701 245.582 48.438C242.439 50.4729 240.54 53.7287 240.156 57.2106C239.907 57.3915 239.636 57.5724 239.365 57.7306C233.147 25.0369 204.342 0.233948 169.839 0.233948C158.58 0.233948 147.795 2.81146 137.824 7.87605C128.305 12.7145 119.849 19.7688 113.405 28.3153C112.388 29.6493 112.659 31.5711 113.993 32.5659C115.327 33.5834 117.249 33.3121 118.244 31.9781C121.635 27.5013 125.502 23.5672 129.775 20.1758V20.221L145.534 44.9561C145.511 45.1822 145.511 45.4083 145.511 45.6344V79.1647C122.088 77.8307 107.143 74.8914 105.266 74.5071C105.198 73.3314 104.045 66.7067 107.55 53.5478C107.979 51.9199 107.052 50.2468 105.447 49.7946C103.819 49.3424 102.146 50.292 101.694 51.8973C97.4656 67.0232 99.1387 73.7836 99.2065 75.1854C98.9352 75.321 96.2446 76.3611 95.1141 79.5717H87.9695C81.5709 79.6169 76.348 84.8398 76.348 91.2383C76.348 97.6595 81.5709 102.882 87.9695 102.882H104.723C103.344 107.63 102.462 113.351 102.462 120.247C102.462 126.668 107.685 131.868 114.084 131.868C116.277 131.868 118.334 131.258 120.098 130.195C121.884 131.28 123.964 131.868 126.112 131.868C132.533 131.868 137.734 126.645 137.734 120.247C137.734 116.946 138.028 113.939 138.57 111.316C146.438 112.333 156.07 113.079 167.149 113.079C168.822 113.079 170.201 111.723 170.201 110.027C170.201 108.354 168.845 106.975 167.149 106.975C151.186 106.975 138.389 105.369 129.594 103.742C129.956 103.244 130.227 102.95 130.385 102.792C133.166 101.368 135.133 98.9709 136.06 96.2125C146.461 97.0264 157.178 97.456 167.963 97.456C178.906 97.456 189.985 97.0264 200.951 96.1673C201.878 98.9483 203.867 101.368 206.648 102.792C206.784 102.928 207.033 103.176 207.326 103.583C199.051 104.962 190.708 105.935 182.456 106.477C180.783 106.59 179.471 108.037 179.607 109.711C179.878 113.034 182.772 112.559 182.84 112.559C187.882 112.243 192.969 111.745 198.056 111.112C198.644 113.803 198.938 116.855 198.938 120.247C198.938 126.668 204.161 131.868 210.56 131.868C212.753 131.868 214.901 131.235 216.755 130.082C218.541 131.212 220.666 131.868 222.95 131.868C229.371 131.868 234.571 126.645 234.571 120.247C234.571 113.328 233.667 107.585 232.288 102.837C243.683 100.712 257.452 96.0994 268.576 86.2868C269.232 86.4224 274.297 87.0781 277.937 83.4153C281.328 80.0465 282.142 75.1854 280.04 71.4774ZM87.9695 96.8003C84.9171 96.8003 82.4301 94.3133 82.4301 91.2609C82.4301 88.2086 84.9171 85.7215 87.9695 85.7215H94.7976C96.222 90.8087 102.168 91.8262 103.186 92.0297C103.412 93.6802 103.887 95.2855 104.565 96.8229H87.9695V96.8003ZM102.598 85.6763C101.897 85.518 100.224 84.9302 100.54 82.4883C100.834 80.25 103.028 80.2952 103.751 80.4535C103.932 80.4987 109.245 81.6066 118.583 82.8275C117.227 83.6867 115.192 85.1789 113.021 87.5303C106.69 86.5581 103.005 85.7668 102.598 85.6763ZM132.556 110.434C131.968 113.396 131.674 116.674 131.652 120.247C131.606 126.238 124.959 125.696 124.439 125.537C125.253 123.955 125.705 122.146 125.705 120.247C125.705 115.612 126.27 112.085 127.017 109.484C128.712 109.778 130.544 110.117 132.556 110.434ZM130.295 94.3585C129.798 95.7603 128.78 96.8682 127.424 97.5012C126.632 97.863 124.71 99.5135 122.947 103.063C120.754 107.517 119.623 113.305 119.623 120.247C119.623 123.299 117.136 125.786 114.084 125.786C111.031 125.786 108.544 123.299 108.544 120.247C108.544 94.8333 121.296 88.1408 122.743 87.4625C123.489 87.1233 127.808 85.4502 130.114 90.1304C130.77 91.4418 130.815 92.9567 130.295 94.3585ZM248.861 53.593C249.788 53.0052 250.873 52.6886 251.958 52.6886C253.948 52.6886 255.779 53.6835 256.842 55.3566C257.678 56.668 257.95 58.2054 257.611 59.7203C257.271 61.2351 256.367 62.5239 255.078 63.3379C254.151 63.9257 253.066 64.2422 251.981 64.2422C249.991 64.2422 248.16 63.2474 247.097 61.5743C245.379 58.8837 246.17 55.3114 248.861 53.593ZM169.839 18.5253C170.766 18.5253 171.603 18.9775 172.1 19.7688L187.701 44.1874C187.973 44.6169 188.131 45.1144 188.131 45.6344V79.3682C174.655 80.0013 162.356 79.9334 151.571 79.4812V45.6344C151.571 45.1144 151.706 44.6169 152 44.1874L167.601 19.7688C168.076 19.0001 168.935 18.5253 169.839 18.5253ZM177.233 16.4904C176.193 14.8399 174.655 13.6415 172.892 12.9859V6.38381C184.717 6.92644 195.705 10.6571 205.043 16.7391L191.183 38.3314L177.233 16.4904ZM134.704 16.6939L134.659 16.6713C144.155 10.4988 155.166 6.92644 166.81 6.38381V12.9859C165.046 13.6415 163.509 14.8399 162.469 16.4904L148.518 38.3314L134.704 16.6939ZM201.448 87.5303C201.064 88.3669 200.77 89.2261 200.589 90.1078C189.736 90.9444 178.793 91.374 167.963 91.374C157.314 91.374 146.732 90.967 136.467 90.1531C136.287 89.2713 135.993 88.3895 135.608 87.5303C135.066 86.3546 134.32 85.3146 133.438 84.4102C151.028 85.9476 175.356 86.8068 203.573 84.4554C202.737 85.3372 201.991 86.3772 201.448 87.5303ZM194.213 79.029V46.7875C194.213 46.5388 194.19 45.1596 194.19 44.9335L209.994 20.3114C235.973 40.095 234.526 73.354 234.458 74.5071C220.327 76.8359 206.806 78.2377 194.213 79.029ZM205.066 120.224C205.043 116.584 204.749 113.26 204.139 110.253C206.106 109.959 208.05 109.643 210.017 109.304C210.786 111.949 211.351 115.499 211.351 120.224C211.351 122.078 211.803 123.842 212.572 125.402C211.962 125.65 205.111 126.555 205.066 120.224ZM222.995 125.786C219.943 125.786 217.456 123.299 217.456 120.247C217.456 113.305 216.348 107.517 214.132 103.063C212.368 99.5135 210.424 97.863 209.655 97.5012C208.321 96.8682 207.304 95.7603 206.784 94.3585C206.286 92.9567 206.264 91.4192 206.965 90.1078C209.248 85.8572 213.589 87.0781 214.336 87.4399C215.783 88.1182 228.534 94.8107 228.534 120.224C228.534 123.299 226.047 125.786 222.995 125.786ZM224.148 87.6208C222.023 85.2919 220.033 83.7771 218.654 82.8953C224.352 82.1944 230.185 81.3805 236.109 80.3856C237.578 80.1369 238.98 81.1317 239.206 82.6014C239.5 84.5684 237.714 85.5633 236.991 85.6989C232.74 86.3998 228.421 87.0555 224.148 87.6208ZM272.488 72.9696C262.427 87.1912 246.735 93.5671 233.667 96.3707C234.21 95.0368 234.617 93.635 234.843 92.2105C235.883 92.0523 236.945 91.8714 237.985 91.7131C240.292 91.3288 242.326 90.0626 243.683 88.1634C245.04 86.2642 245.582 83.9354 245.198 81.6292C244.723 78.7803 242.914 76.4741 240.518 75.2532C240.608 73.8514 240.54 66.4806 240.314 64.2422C240.653 64.0614 240.992 63.8805 241.309 63.6996C241.512 64.084 244.407 69.7816 251.958 70.3469C254.219 70.5051 256.412 69.7138 258.334 68.4929C261.002 66.7971 262.856 64.1518 263.534 61.0543C264.213 57.9567 263.67 54.7914 261.952 52.1234C261.635 51.626 261.273 51.1512 260.889 50.699C263.783 50.699 266.655 51.5582 269.074 53.2765C272.149 55.447 274.206 58.7028 274.839 62.4335C275.518 66.1415 274.681 69.8721 272.488 72.9696Z" fill="black"/>
<path d="M106.238 47.4658C104.701 46.8101 103.977 45.024 104.61 43.4865C105.695 40.9316 106.939 38.4219 108.318 36.0027C109.155 34.533 111.009 34.0356 112.478 34.8722C113.948 35.7087 114.445 37.5627 113.609 39.0324C112.343 41.2481 111.212 43.5543 110.217 45.8831C109.2 48.2345 106.622 47.6241 106.238 47.4658Z" fill="black"/>
<path d="M87.1388 50.5825C88.4319 58.6009 85.8423 66.2122 84.7893 73.5449C84.9848 69.8909 85.4009 66.2287 85.6785 64.7817C86.2338 61.8878 86.5026 57.2366 86.3957 54.3675C86.1169 49.8472 84.7017 44.4855 80.7367 41.8714C75.6354 38.4158 71.2461 39.2432 66.0068 40.9864C66.4729 41.632 66.8245 42.1713 67.1761 42.7107C67.2905 42.8169 67.2987 43.0376 67.4132 43.1438C67.6503 43.577 67.7812 44.1246 68.0184 44.5577C69.7687 50.0174 66.7864 55.9858 62.97 60.3279C61.0576 62.3886 58.8348 65.0134 56.6689 66.1995C55.4838 67.0174 53.187 67.656 51.3721 66.3979C51.2577 66.2917 51.1432 66.1854 51.0288 66.0792C49.3201 64.7067 49.475 62.9328 49.5073 60.832C46.9576 63.5796 45.0623 69.0653 44.6461 72.7275C43.9606 78.0574 44.1983 81.4741 45.0412 86.3047C45.7615 90.8084 47.1109 94.4045 48.9182 98.4255C50.3575 101.466 52.5158 103.042 54.2655 105.519C52.6555 106.794 48.3971 108.169 45.4704 106.732C47.8588 114.488 53.1897 121.14 61.0539 124.603C64.9778 126.113 70.7571 127.002 75.171 126.837C58.7748 131.65 39.4905 124.195 32.9633 103.222C28.9472 90.333 34.5515 74.6525 40.5086 65.4786C44.1612 59.7061 48.1895 52.1515 42.5564 46.2847C48.9484 45.8243 55.8817 53.963 54.0933 62.3178C60.4108 56.8876 62.6893 46.8569 56.2796 40.9086C49.5265 34.6418 44.1975 36.9409 36.8088 40.3117C44.8091 29.6247 56.2848 26.2114 67.6555 28.8797C77.5876 31.4914 85.7553 40.1364 87.1388 50.5825Z" fill="#FFB300"/>
<path d="M87.1388 50.5825C88.4319 58.6009 85.8423 66.2122 84.7893 73.5449C84.9848 69.8909 85.4009 66.2287 85.6785 64.7817C86.2338 61.8878 86.5026 57.2366 86.3957 54.3675C86.1169 49.8472 84.7017 44.4855 80.7367 41.8714C75.6354 38.4158 71.2461 39.2432 66.0068 40.9864C66.4729 41.632 66.8245 42.1713 67.1761 42.7107C67.2905 42.8169 67.2987 43.0376 67.4132 43.1438C67.6503 43.577 67.7812 44.1246 68.0184 44.5577C69.7687 50.0174 66.7864 55.9858 62.97 60.3279C61.0576 62.3886 58.8348 65.0134 56.6689 66.1995C55.4838 67.0174 53.187 67.656 51.3721 66.3979C51.2577 66.2917 51.1432 66.1854 51.0288 66.0792C49.3201 64.7067 49.475 62.9328 49.5073 60.832C46.9576 63.5796 45.0623 69.0653 44.6461 72.7275C43.9606 78.0574 44.1983 81.4741 45.0412 86.3047C45.7615 90.8084 47.1109 94.4045 48.9182 98.4255C50.3575 101.466 52.5158 103.042 54.2655 105.519C52.6555 106.794 48.3971 108.169 45.4704 106.732C47.8588 114.488 53.1897 121.14 61.0539 124.603C64.9778 126.113 70.7571 127.002 75.171 126.837C58.7748 131.65 39.4905 124.195 32.9633 103.222C28.9472 90.333 34.5515 74.6525 40.5086 65.4786C44.1612 59.7061 48.1895 52.1515 42.5564 46.2847C48.9484 45.8243 55.8817 53.963 54.0933 62.3178C60.4108 56.8876 62.6893 46.8569 56.2796 40.9086C49.5265 34.6418 44.1975 36.9409 36.8088 40.3117C44.8091 29.6247 56.2848 26.2114 67.6555 28.8797C77.5876 31.4914 85.7553 40.1364 87.1388 50.5825Z" fill="url(#paint14_linear_13_3325)"/>
<path d="M101.823 106.611C96.9438 112.098 91.0349 116.629 86.1061 117.808C79.9758 119.363 73.2322 119.284 68.1309 115.829C71.3187 115.378 74.7841 113.48 76.5737 111.092C67.7287 107.998 58.4816 97.0729 62.305 86.9843C63.5483 90.6949 69.0341 95.5727 71.6249 93.9286C66.9397 86.8108 70.5583 74.1883 77.2849 70.8423C76.5178 76.9488 75.7917 84.1587 79.2015 89.6668C80.8696 92.9194 86.8297 98.6635 95.6659 98.5536C98.535 98.4462 101.052 97.7994 103.774 96.7029C108.63 96.5211 106.26 101.141 101.823 106.611Z" fill="white"/>
<path d="M79.6076 76.833C80.1565 82.6692 80.9747 86.8377 85.3324 91.0947C87.3927 93.0066 90.5564 94.8773 93.3522 95.7671C96.1725 97.3191 99.8428 97.9551 104.118 97.0215C101.502 98.0035 98.8785 98.7648 96.0094 98.8722C87.1732 98.9821 81.0986 93.1318 79.5449 89.9854C76.1352 84.4773 76.7468 77.1612 77.6284 71.1609C70.7955 74.6214 67.1687 87.0232 71.9684 94.2472C69.492 95.9975 63.8917 91.0135 62.6485 87.3029C58.8251 97.3915 68.0722 108.317 76.9172 111.411C75.0131 113.692 71.6621 115.697 68.4743 116.147C73.5757 119.603 80.3193 119.682 86.4496 118.126C91.3783 116.947 97.1728 112.31 102.166 106.93C98.2599 111.827 93.5853 116.865 89.7278 120.103C88.5509 121.142 87.2596 122.074 85.9683 123.007C74.9991 125.185 61.3398 123.376 56.3517 114.06C63.2262 114.686 65.7513 111.277 67.713 110.54C65.3176 108.53 61.4835 106.464 59.2759 103.563C57.0683 100.662 55.6044 96.9596 54.7045 93.5676C52.9049 86.7838 54.9633 79.7449 58.9265 73.4083C59.4665 76.0402 60.6851 79.0886 63.1538 80.1012C63.1691 74.5755 66.0376 71.4844 68.8567 67.0692C70.8506 64.2319 79.4396 54.5174 74.3219 50.6204C79.4631 49.2124 82.1614 53.421 82.2688 59.2737C81.804 64.5953 78.8381 71.0051 79.6076 76.833Z" fill="#FFF500"/>
<path d="M86.2895 54.4819C86.5108 57.4572 86.1275 62.0023 85.5722 64.8962C85.2946 66.3431 84.9847 69.8909 84.683 73.6593C84.234 76.4387 84.112 79.0954 84.325 81.85C84.3333 82.0707 84.3497 82.5121 84.4724 82.8391C84.4806 83.0598 84.4806 83.0598 84.5951 83.166C84.6033 83.3867 84.6115 83.6074 84.7259 83.7136L84.7342 83.9343C85.5689 88.5442 88.5043 93.186 93.1232 95.5546C90.3274 94.6648 87.1637 92.7942 85.1034 90.8822C80.7457 86.6253 79.9275 82.4567 79.3786 76.6206C78.6091 70.7926 81.6895 64.4891 81.5902 58.857C81.4828 53.0043 78.8907 48.6812 73.6432 50.2038C78.761 54.1008 70.2865 63.9215 68.1781 66.6526C65.2527 71.1823 62.4904 74.1588 62.4752 79.6846C60.0064 78.672 58.7879 75.6235 58.2478 72.9916C54.3909 79.2138 52.2262 86.3671 54.0259 93.151C55.032 96.4285 56.4959 100.131 58.5973 103.146C60.8049 106.047 64.6389 108.114 67.0344 110.124C65.179 110.746 62.5476 114.27 55.6731 113.643C60.6612 122.96 74.3205 124.769 85.2897 122.59C82.0531 124.7 78.465 126.271 74.8523 127.18C70.4383 127.345 64.659 126.457 60.7351 124.946C52.6502 121.492 47.4338 114.946 45.1517 107.075C48.1927 108.619 52.3367 107.138 53.9468 105.862C52.197 103.386 50.0387 101.809 48.5995 98.7689C46.7922 94.7479 45.3282 91.0456 44.7225 86.6481C43.8796 81.8175 43.6418 78.4008 44.3274 73.0709C44.7435 69.4087 46.6388 63.923 49.1885 61.1754C49.1563 63.2762 49.0013 65.0501 50.71 66.4226C50.8244 66.5289 50.9389 66.6351 51.0534 66.7413C52.7538 67.8932 55.0506 67.2546 56.3501 66.5429C58.516 65.3568 60.7389 62.732 62.6512 60.6713C66.5739 56.2147 69.5562 50.2463 67.6996 44.9011C67.5687 44.3535 67.3316 43.9204 67.0944 43.4872C66.98 43.381 66.9717 43.1603 66.8573 43.0541C66.5057 42.5147 66.1459 41.7547 65.688 41.3298C70.8128 39.4803 75.3166 38.7592 80.418 42.2148C84.5954 44.6 86.0106 49.9617 86.2895 54.4819Z" fill="#FFD400"/>
<defs>
<linearGradient id="paint0_linear_13_3325" x1="79.3898" y1="91.247" x2="124.906" y2="91.247" gradientUnits="userSpaceOnUse">
<stop stop-color="#4ABDFB"/>
<stop offset="0.4869" stop-color="#AD5ADC"/>
<stop offset="1" stop-color="#F1B5E7"/>
</linearGradient>
<linearGradient id="paint1_linear_13_3325" x1="98.7966" y1="91.2468" x2="124.906" y2="91.2468" gradientUnits="userSpaceOnUse">
<stop stop-color="#4ABDFB"/>
<stop offset="0.4869" stop-color="#AD5ADC"/>
<stop offset="1" stop-color="#F1B5E7"/>
</linearGradient>
<linearGradient id="paint2_linear_13_3325" x1="117.52" y1="106.35" x2="145.7" y2="106.35" gradientUnits="userSpaceOnUse">
<stop stop-color="#4ABDFB"/>
<stop offset="0.4869" stop-color="#AD5ADC"/>
<stop offset="1" stop-color="#F1B5E7"/>
</linearGradient>
<linearGradient id="paint3_linear_13_3325" x1="117.945" y1="99.8402" x2="145.7" y2="99.8402" gradientUnits="userSpaceOnUse">
<stop stop-color="#4ABDFB"/>
<stop offset="0.4869" stop-color="#AD5ADC"/>
<stop offset="1" stop-color="#F1B5E7"/>
</linearGradient>
<linearGradient id="paint4_linear_13_3325" x1="191.028" y1="106.35" x2="219.208" y2="106.35" gradientUnits="userSpaceOnUse">
<stop stop-color="#4ABDFB"/>
<stop offset="0.4869" stop-color="#AD5ADC"/>
<stop offset="1" stop-color="#F1B5E7"/>
</linearGradient>
<linearGradient id="paint5_linear_13_3325" x1="191.028" y1="99.8566" x2="218.841" y2="99.8566" gradientUnits="userSpaceOnUse">
<stop stop-color="#4ABDFB"/>
<stop offset="0.4869" stop-color="#AD5ADC"/>
<stop offset="1" stop-color="#F1B5E7"/>
</linearGradient>
<linearGradient id="paint6_linear_13_3325" x1="216.302" y1="74.5328" x2="278.127" y2="74.5328" gradientUnits="userSpaceOnUse">
<stop stop-color="#4ABDFB"/>
<stop offset="0.4869" stop-color="#AD5ADC"/>
<stop offset="1" stop-color="#F1B5E7"/>
</linearGradient>
<linearGradient id="paint7_linear_13_3325" x1="216.303" y1="79.6143" x2="250.375" y2="79.6143" gradientUnits="userSpaceOnUse">
<stop stop-color="#4ABDFB"/>
<stop offset="0.4869" stop-color="#AD5ADC"/>
<stop offset="1" stop-color="#F1B5E7"/>
</linearGradient>
<linearGradient id="paint8_linear_13_3325" x1="106.064" y1="81.6989" x2="232.012" y2="81.6989" gradientUnits="userSpaceOnUse">
<stop stop-color="#4ABDFB"/>
<stop offset="0.4869" stop-color="#AD5ADC"/>
<stop offset="1" stop-color="#F1B5E7"/>
</linearGradient>
<linearGradient id="paint9_linear_13_3325" x1="151.296" y1="123.764" x2="180.465" y2="33.5418" gradientUnits="userSpaceOnUse">
<stop stop-color="#4ABDFB"/>
<stop offset="0.4869" stop-color="#AD5ADC"/>
<stop offset="1" stop-color="#F1B5E7"/>
</linearGradient>
<linearGradient id="paint10_linear_13_3325" x1="203.401" y1="106.35" x2="231.58" y2="106.35" gradientUnits="userSpaceOnUse">
<stop stop-color="#4ABDFB"/>
<stop offset="0.4869" stop-color="#AD5ADC"/>
<stop offset="1" stop-color="#F1B5E7"/>
</linearGradient>
<linearGradient id="paint11_linear_13_3325" x1="105.497" y1="106.35" x2="133.677" y2="106.35" gradientUnits="userSpaceOnUse">
<stop stop-color="#4ABDFB"/>
<stop offset="0.4869" stop-color="#AD5ADC"/>
<stop offset="1" stop-color="#F1B5E7"/>
</linearGradient>
<linearGradient id="paint12_linear_13_3325" x1="105.497" y1="106.35" x2="130.814" y2="106.35" gradientUnits="userSpaceOnUse">
<stop stop-color="#4ABDFB"/>
<stop offset="0.4869" stop-color="#AD5ADC"/>
<stop offset="1" stop-color="#F1B5E7"/>
</linearGradient>
<linearGradient id="paint13_linear_13_3325" x1="206.263" y1="106.35" x2="231.58" y2="106.35" gradientUnits="userSpaceOnUse">
<stop stop-color="#4ABDFB"/>
<stop offset="0.4869" stop-color="#AD5ADC"/>
<stop offset="1" stop-color="#F1B5E7"/>
</linearGradient>
<linearGradient id="paint14_linear_13_3325" x1="31.9456" y1="109.327" x2="90.6919" y2="46.0229" gradientUnits="userSpaceOnUse">
<stop stop-color="#4ABDFB"/>
<stop offset="0.4869" stop-color="#AD5ADC"/>
<stop offset="1" stop-color="#F1B5E7"/>
</linearGradient>
</defs>
</svg>
