<svg width="276" height="136" viewBox="0 0 276 136" fill="none" xmlns="http://www.w3.org/2000/svg">
<path d="M163.281 98.9167H191.338C196.04 98.9167 199.846 95.1101 199.846 90.4078C199.846 85.7056 196.04 81.899 191.338 81.899H163.281C158.579 81.899 154.772 85.7056 154.772 90.4078C154.772 95.1101 158.579 98.9167 163.281 98.9167Z" fill="url(#paint0_linear_13_3371)"/>
<path d="M163.281 81.9214H180.634V89.96L180.612 90.2287C180.388 93.2964 179.559 96.2521 178.216 98.9167H163.303C158.601 98.9167 154.794 95.1101 154.794 90.4078C154.794 85.7056 158.578 81.9214 163.281 81.9214Z" fill="url(#paint1_linear_13_3371)"/>
<path d="M153.585 127.623C148.883 127.623 145.076 123.816 145.076 119.114C145.076 103.664 139.142 99.3422 139.075 99.3198C134.821 97.3269 132.985 92.2664 134.977 88.012C136.97 83.7576 142.031 81.9214 146.285 83.9143C147.897 84.6756 162.071 92.0873 162.071 119.114C162.094 123.816 158.287 127.623 153.585 127.623Z" fill="url(#paint2_linear_13_3371)"/>
<path d="M146.308 83.9143C147.763 84.586 159.317 90.6542 161.691 111.411C158.511 112.24 152.801 113.561 144.919 114.725C143.934 102.835 139.142 99.3422 139.098 99.3198C134.843 97.3269 133.007 92.2664 135 88.012C136.993 83.7575 142.053 81.9214 146.308 83.9143Z" fill="url(#paint3_linear_13_3371)"/>
<path d="M69.8849 127.623C74.5871 127.623 78.3937 123.816 78.3937 119.114C78.3937 103.664 84.3275 99.3422 84.3947 99.3198C88.6491 97.3269 90.4852 92.2664 88.4924 88.012C86.4995 83.7575 81.439 81.9214 77.1846 83.9143C75.5724 84.6756 61.3984 92.0873 61.3984 119.114C61.376 123.816 65.205 127.623 69.8849 127.623Z" fill="url(#paint4_linear_13_3371)"/>
<path d="M77.1846 83.9143C81.439 81.9214 86.4995 83.7575 88.4924 88.012C90.4852 92.2664 88.6491 97.3269 84.3947 99.3198C84.3499 99.3422 79.5357 102.835 78.5728 114.77C72.9525 114.009 67.3546 113.068 61.7567 111.926C63.9735 90.7438 75.7291 84.6084 77.1846 83.9143Z" fill="url(#paint5_linear_13_3371)"/>
<path d="M5.25826 80.4932C2.48921 77.7707 2.20545 73.5692 4.62444 71.1088C7.04343 68.6484 11.2491 68.8609 14.0182 71.5833C16.7872 74.3058 17.071 78.5073 14.652 80.9677C12.233 83.4281 8.0273 83.2156 5.25826 80.4932Z" fill="#85BB04"/>
<path d="M64.175 100.506V66.4935H64.2646C58.5771 66.4263 40.7757 64.0976 33.9463 54.4243C28.5275 46.744 17.9138 44.9303 10.2335 50.349C2.55312 55.7678 0.739346 66.3815 6.15813 74.0619C24.3178 99.7675 60.1445 100.506 64.175 100.506Z" fill="url(#paint6_linear_13_3371)"/>
<path d="M41.5593 97.2372C41.3354 96.6998 41.1339 96.1624 40.9771 95.6026C37.7975 94.8189 35.0209 92.9604 33.0952 90.2734C30.968 87.2953 30.1172 83.6679 30.7218 80.0628C31.2592 76.8384 32.8714 74.0394 35.1777 72.0242C35.1777 71.7331 35.1777 65.3738 36.5212 57.3128C44.4927 64.5901 59.204 66.471 64.2869 66.5158H64.1973V100.529C62.2269 100.506 52.8224 100.327 41.5593 97.2372Z" fill="url(#paint7_linear_13_3371)"/>
<path d="M28.9529 66.6726C24.1299 66.6726 20.2201 62.7628 20.2201 57.9398C20.2201 53.1169 24.1299 49.2071 28.9529 49.2071C33.7759 49.2071 37.6857 53.1169 37.6857 57.9398C37.6857 62.7628 33.7759 66.6726 28.9529 66.6726Z" fill="white"/>
<path d="M33.297 61.9927C35.8944 57.9174 34.6852 52.521 30.6323 49.9235C30.2069 49.6548 29.759 49.4309 29.2888 49.2294C30.789 49.2966 32.2894 49.722 33.6329 50.5729C37.7082 53.1703 38.8949 58.5667 36.2975 62.642C33.9911 66.2695 29.4232 67.613 25.5719 66.0008C28.5947 66.1351 31.5728 64.7021 33.297 61.9927Z" fill="#9CDD05"/>
<path d="M173.447 52.9017L173.402 89.6689C172.976 95.6922 168.946 101.111 162.833 102.992C161.669 103.35 142.748 109.015 112.944 109.015C97.9418 109.015 80.1852 107.582 60.5701 103.305C53.8973 101.85 49.2175 96.1624 48.7696 89.6689L48.7249 52.9017H173.447Z" fill="url(#paint8_linear_13_3371)"/>
<path opacity="0.2" d="M133.5 89.6689H133.545V52.9017H173.447L173.402 89.6689C172.976 95.6922 168.946 101.111 162.833 102.992C161.669 103.35 142.748 109.015 112.944 109.015C106.697 109.015 99.9571 108.769 92.8141 108.164C111.019 106.575 122.058 103.261 122.931 102.992C129.044 101.111 133.074 95.6698 133.5 89.6689Z" fill="white"/>
<path d="M44.2241 82.3021C43.53 78.4283 43.1717 74.465 43.1717 70.3897C43.1717 33.3314 73.2213 3.30417 110.257 3.30417C147.293 3.30417 177.343 33.3538 177.343 70.3897C177.343 74.4426 176.985 78.4283 176.29 82.3021H44.2241Z" fill="#957856"/>
<path d="M177.365 70.3897C177.365 74.4426 177.007 78.4283 176.312 82.302H149.957C150.652 78.4283 151.01 74.465 151.01 70.3897C151.01 37.8545 127.834 10.7158 97.0907 4.58046C101.345 3.72957 105.756 3.28174 110.279 3.28174C147.315 3.30413 177.365 33.3314 177.365 70.3897Z" fill="#806749"/>
<path d="M110.279 3.30409C147.338 3.30409 177.365 33.3538 177.365 70.3896C177.365 74.4425 177.007 78.4282 176.313 82.302H110.279V3.30409Z" fill="#806749"/>
<path d="M177.365 70.3897C177.365 74.4426 177.007 78.4283 176.312 82.3021H149.957C150.652 78.4283 151.01 74.465 151.01 70.3897C151.01 42.6912 134.216 18.9112 110.279 8.67818V3.30417C147.315 3.30417 177.365 33.3314 177.365 70.3897Z" fill="#6A563D"/>
<path d="M130.88 45.2438C130.88 44.169 131.708 43.0942 132.29 42.1985L147.741 18.0155C148.256 17.2094 148.95 16.5824 149.734 16.1346C166.483 28.3381 177.365 48.0875 177.365 70.4121C177.365 74.465 177.007 78.4507 176.312 82.3244H130.88V45.2438Z" fill="#957856"/>
<path d="M149.734 16.1346C166.483 28.3381 177.365 48.0875 177.365 70.3897C177.365 74.4426 177.007 78.4283 176.312 82.3021H149.957C150.652 78.4283 151.01 74.465 151.01 70.3897C151.01 56.059 146.509 42.7807 138.874 31.8983L147.741 18.0155C148.233 17.2094 148.927 16.5824 149.734 16.1346Z" fill="#806749"/>
<path d="M89.6793 45.2438C89.6793 44.169 88.8508 43.0942 88.2686 42.1985L72.8184 18.0155C72.3034 17.2094 71.6092 16.5824 70.8255 16.1346C54.0765 28.3381 43.1941 48.0875 43.1941 70.4121C43.1941 74.465 43.5524 78.4507 44.2466 82.3244H89.6793V45.2438Z" fill="#806749"/>
<path d="M89.1418 87.2057V45.2437C89.1418 44.1689 89.4553 43.0941 90.0375 42.1984L105.488 18.0154C106.54 16.3808 108.331 15.3955 110.257 15.3955C112.183 15.3955 113.997 16.3808 115.027 18.0154L130.477 42.1984C131.059 43.1164 131.373 44.1689 131.373 45.2437V87.2057H89.1418Z" fill="url(#paint9_linear_13_3371)"/>
<path d="M112.116 93.5426C150.764 93.5426 175.954 88.1686 177.522 87.8327C180.589 87.1609 182.515 84.1381 181.843 81.0704C181.172 78.0027 178.149 76.0771 175.081 76.7488C174.365 76.9055 118.117 88.8179 45.1421 76.704C42.052 76.189 39.1411 78.2714 38.6261 81.3615C38.1111 84.4515 40.1935 87.3625 43.2835 87.8775C68.8548 92.1319 92.2766 93.5426 112.116 93.5426Z" fill="#5F4D37"/>
<path d="M177.522 87.8327C176.357 88.079 162.251 91.1019 139.299 92.6469C141.046 91.2362 142.21 88.6612 141.919 86.3996C141.583 83.9813 140.24 81.9213 137.799 81.2943C160.728 79.7941 174.745 76.8384 175.104 76.7488C178.171 76.077 181.194 78.0251 181.866 81.0704C182.515 84.138 180.589 87.1609 177.522 87.8327Z" fill="#554431"/>
<path d="M57.6367 127.623C62.339 127.623 66.1456 123.816 66.1456 119.114C66.1456 103.664 72.0794 99.3421 72.1466 99.3198C76.401 97.3269 78.2371 92.2664 76.2443 88.0119C74.2514 83.7575 69.1909 81.9214 64.9364 83.9143C63.3242 84.6756 49.1503 92.0872 49.1503 119.114C49.1279 123.816 52.9345 127.623 57.6367 127.623Z" fill="url(#paint10_linear_13_3371)"/>
<path d="M165.497 127.623C160.795 127.623 156.989 123.816 156.989 119.114C156.989 103.664 151.055 99.3422 150.988 99.3198C146.733 97.3269 144.897 92.2664 146.89 88.012C148.883 83.7575 153.943 81.9214 158.198 83.9143C159.81 84.6756 173.984 92.0873 173.984 119.114C174.006 123.816 170.2 127.623 165.497 127.623Z" fill="url(#paint11_linear_13_3371)"/>
<path d="M165.139 120.659C165.139 93.6323 150.965 86.2207 149.353 85.4594C149.219 85.3922 149.084 85.3474 148.95 85.2802C151.413 83.0858 155.041 82.4365 158.22 83.9143C159.833 84.6756 174.006 92.0873 174.006 119.114C174.006 123.816 170.2 127.623 165.498 127.623C164.356 127.623 163.281 127.399 162.296 126.996C164.02 125.451 165.139 123.189 165.139 120.659Z" fill="url(#paint12_linear_13_3371)"/>
<path d="M57.9949 120.659C57.9949 93.6323 72.1689 86.2206 73.7811 85.4593C73.9154 85.3922 74.0498 85.3474 74.1841 85.2802C71.7211 83.0858 68.0936 82.4364 64.9139 83.9143C63.3017 84.6756 49.1278 92.0873 49.1278 119.114C49.1278 123.816 52.9344 127.623 57.6366 127.623C58.7786 127.623 59.8534 127.399 60.8387 126.996C59.1145 125.451 57.9949 123.189 57.9949 120.659Z" fill="url(#paint13_linear_13_3371)"/>
<path d="M58.0397 56.0141C59.2936 56.0141 60.4804 55.208 60.9058 53.9541C62.7195 48.5129 65.4289 43.4076 68.9444 38.8173C69.952 37.4962 69.7057 35.6153 68.3846 34.5853C67.0635 33.5776 65.1826 33.8239 64.1526 35.1451C60.2341 40.2728 57.2112 45.9379 55.1959 52.0284C54.6585 53.5958 55.5318 55.32 57.0992 55.835C57.3903 55.9693 57.7262 56.0141 58.0397 56.0141Z" fill="#6A563D"/>
<path d="M55.2184 73.2559C56.8754 73.2559 58.2189 71.9124 58.2413 70.2555C58.2413 67.4341 58.4875 64.6128 58.9354 61.8586C59.2041 60.224 58.1069 58.6566 56.4499 58.3879C54.8153 58.1192 53.2479 59.2164 52.9792 60.8733C52.4642 63.941 52.2179 67.0982 52.1955 70.2331C52.1955 71.9124 53.5614 73.2559 55.2184 73.2559Z" fill="#6A563D"/>
<path d="M28.9527 60.9628C28.169 60.9628 27.3853 60.6493 26.8255 60.0895C26.2657 59.5297 25.9522 58.746 25.9522 57.9623C25.9522 57.1786 26.2657 56.3949 26.8255 55.8351C27.3853 55.2753 28.169 54.9618 28.9527 54.9618C29.7364 54.9618 30.5201 55.2753 31.0799 55.8351C31.6397 56.3949 31.9532 57.1786 31.9532 57.9623C31.9532 58.746 31.6397 59.5297 31.0799 60.0895C30.5201 60.6493 29.7364 60.9628 28.9527 60.9628Z" fill="#3E3D42"/>
<path d="M1.14224 70.8375C0.0226593 67.6579 -0.268478 64.2319 0.313705 60.8284C1.23177 55.5664 4.1203 50.9537 8.48668 47.8636C18.1375 41.0789 27.9227 45.8931 28.2362 46.2066C28.4825 46.1842 31.1471 45.3781 35.2672 48.0204C38.3796 50.0356 40.2605 53.26 40.6412 56.7083C40.8875 56.8875 41.1562 57.0666 41.4249 57.2233C47.5826 24.8449 76.1096 0.28125 110.279 0.28125C121.453 0.28125 132.111 2.8339 142.008 7.84964C151.435 12.6415 159.81 19.6277 166.191 28.0917C167.199 29.4128 166.93 31.3161 165.609 32.3014C164.288 33.309 162.385 33.0403 161.4 31.7192C158.041 27.2856 154.212 23.3895 149.98 20.0307V20.0755L134.373 44.572C134.395 44.7959 134.395 45.0199 134.395 45.2438V78.4507C157.593 77.1296 172.394 74.2186 174.252 73.838C174.32 72.6736 175.462 66.1128 171.991 53.0809C171.566 51.4687 172.484 49.8117 174.073 49.3639C175.686 48.916 177.343 49.8565 177.79 51.4463C181.978 66.4263 180.321 73.1214 180.253 74.5097C180.522 74.6441 183.187 75.6741 184.306 78.8537H191.36C197.719 78.8537 202.869 84.0262 202.869 90.3631C202.869 96.7223 197.697 101.872 191.36 101.872H174.767C176.133 106.575 177.007 112.24 177.007 119.069C177.007 125.428 171.834 130.579 165.497 130.579C163.325 130.579 161.288 129.974 159.541 128.922C157.772 129.996 155.712 130.579 153.585 130.579C147.226 130.579 142.076 125.406 142.076 119.069C142.076 115.8 141.785 112.822 141.247 110.224C133.455 111.232 123.916 111.971 112.944 111.971C111.287 111.971 109.921 110.628 109.921 108.948C109.921 107.291 111.265 105.925 112.944 105.925C128.753 105.925 141.426 104.335 150.137 102.723C149.778 102.231 149.51 101.94 149.353 101.783C146.599 100.372 144.651 97.9986 143.733 95.2668C133.432 96.0729 122.819 96.4984 112.138 96.4984C101.3 96.4984 90.3284 96.0729 79.4684 95.2221C78.5503 97.9762 76.5799 100.372 73.8257 101.783C73.6913 101.917 73.445 102.163 73.1539 102.567C81.3493 103.932 89.6118 104.895 97.7848 105.433C99.4418 105.545 100.741 106.978 100.606 108.635C100.337 111.926 97.4713 111.456 97.4042 111.456C92.4108 111.143 87.3727 110.65 82.3345 110.023C81.7523 112.688 81.4613 115.71 81.4613 119.069C81.4613 125.428 76.2888 130.579 69.9519 130.579C67.7799 130.579 65.6527 129.952 63.8166 128.81C62.0477 129.929 59.9429 130.579 57.6813 130.579C51.3221 130.579 46.172 125.406 46.172 119.069C46.172 112.217 47.0676 106.53 48.4335 101.828C37.1481 99.7228 23.5115 95.1549 12.4948 85.4369C11.8454 85.5712 6.8297 86.2206 3.22462 82.5931C-0.134125 79.324 -0.940186 74.5097 1.14224 70.8375ZM191.36 95.9162C194.383 95.9162 196.846 93.4531 196.846 90.4302C196.846 87.4074 194.383 84.9443 191.36 84.9443H184.597C183.187 89.9824 177.298 90.99 176.29 91.1916C176.066 92.8261 175.596 94.416 174.924 95.9386H191.36V95.9162ZM176.872 84.8995C177.566 84.7427 179.223 84.1606 178.91 81.7422C178.619 79.5255 176.447 79.5703 175.73 79.727C175.551 79.7718 170.289 80.869 161.041 82.0781C162.385 82.929 164.4 84.4069 166.55 86.7356C172.819 85.7728 176.469 84.989 176.872 84.8995ZM147.203 109.418C147.785 112.352 148.077 115.598 148.099 119.136C148.144 125.07 154.727 124.533 155.242 124.376C154.436 122.809 153.988 121.017 153.988 119.136C153.988 114.546 153.428 111.053 152.689 108.478C151.01 108.769 149.196 109.105 147.203 109.418ZM149.442 93.4979C149.935 94.8862 150.943 95.9834 152.286 96.6103C153.07 96.9686 154.973 98.6032 156.72 102.119C158.892 106.53 160.011 112.262 160.011 119.136C160.011 122.159 162.474 124.622 165.497 124.622C168.52 124.622 170.983 122.159 170.983 119.136C170.983 93.9681 158.354 87.3402 156.921 86.6684C156.182 86.3326 151.906 84.6756 149.622 89.3106C148.972 90.6094 148.927 92.1096 149.442 93.4979ZM32.0204 53.1257C31.1023 52.5435 30.0275 52.23 28.9527 52.23C26.9822 52.23 25.1686 53.2152 24.1161 54.8722C23.2877 56.1709 23.0189 57.6936 23.3548 59.1938C23.6906 60.6941 24.5863 61.9704 25.8627 62.7765C26.7807 63.3587 27.8556 63.6722 28.9304 63.6722C30.9008 63.6722 32.7145 62.6869 33.7669 61.0299C35.4687 58.3653 34.685 54.8274 32.0204 53.1257ZM110.279 18.3961C109.361 18.3961 108.533 18.844 108.04 19.6277L92.5899 43.8107C92.3212 44.2362 92.1645 44.7288 92.1645 45.2438V78.6522C105.51 79.2792 117.691 79.212 128.372 78.7642V45.2438C128.372 44.7288 128.238 44.2362 127.946 43.8107L112.496 19.6277C112.026 18.8664 111.175 18.3961 110.279 18.3961ZM102.957 16.3809C103.987 14.7463 105.51 13.5595 107.257 12.9102V6.37179C95.5456 6.90919 84.6633 10.6038 75.4155 16.6272L89.1416 38.0113L102.957 16.3809ZM145.076 16.5824L145.121 16.56C135.716 10.4471 124.812 6.90919 113.28 6.37179V12.9102C115.026 13.5595 116.549 14.7463 117.579 16.3809L131.395 38.0113L145.076 16.5824ZM78.9758 86.7356C79.3564 87.5641 79.6475 88.415 79.8267 89.2883C90.5747 90.1167 101.412 90.5422 112.138 90.5422C122.684 90.5422 133.164 90.1391 143.33 89.333C143.509 88.4598 143.8 87.5865 144.18 86.7356C144.718 85.5712 145.457 84.5412 146.33 83.6455C128.909 85.1682 104.816 86.0191 76.871 83.6903C77.6995 84.5636 78.4384 85.5936 78.9758 86.7356ZM86.1411 78.3163V46.3858C86.1411 46.1395 86.1635 44.7736 86.1635 44.5496L70.5117 20.1651C44.7836 39.7578 46.2168 72.696 46.2839 73.838C60.2787 76.1443 73.6689 77.5326 86.1411 78.3163ZM75.3931 119.114C75.4155 115.509 75.7066 112.217 76.3112 109.239C74.3631 108.948 72.4374 108.635 70.4893 108.299C69.728 110.919 69.1682 114.434 69.1682 119.114C69.1682 120.95 68.7204 122.697 67.9591 124.242C68.5636 124.488 75.3483 125.384 75.3931 119.114ZM57.6365 124.622C60.6593 124.622 63.1224 122.159 63.1224 119.136C63.1224 112.262 64.2197 106.53 66.4141 102.119C68.1606 98.6032 70.0863 96.9686 70.8476 96.6103C72.1687 95.9834 73.1764 94.8862 73.6914 93.4979C74.184 92.1096 74.2064 90.587 73.5122 89.2883C71.2507 85.0786 66.9514 86.2878 66.2125 86.646C64.7794 87.3178 52.1505 93.9457 52.1505 119.114C52.1505 122.159 54.6136 124.622 57.6365 124.622ZM56.4945 86.8252C58.5993 84.5188 60.5698 83.0186 61.9357 82.1453C56.293 81.4512 50.5383 80.6451 44.6493 79.6598C43.1938 79.4135 41.8056 80.3988 41.5817 81.8542C41.2906 83.8023 43.0595 84.7875 43.776 84.9219C47.9857 85.616 52.2625 86.2654 56.4945 86.8252ZM8.62105 72.3153C18.5854 86.3997 34.1252 92.7142 47.0676 95.4908C46.5302 94.1696 46.1272 92.7814 45.9032 91.3707C44.8732 91.2139 43.8208 91.0348 42.7908 90.8781C40.5069 90.4974 38.4916 89.2435 37.1481 87.3626C35.8046 85.4817 35.2672 83.1753 35.6479 80.8914C36.1181 78.07 37.9094 75.7861 40.2829 74.5769C40.1933 73.1886 40.2605 65.8889 40.4844 63.6722C40.1485 63.493 39.8127 63.3139 39.4992 63.1348C39.2977 63.5154 36.4315 69.1581 28.9527 69.7179C26.7359 69.8746 24.5416 69.0909 22.6383 67.8818C19.9961 66.2024 18.1599 63.5826 17.4882 60.5149C16.8164 57.4473 17.3538 54.3124 19.0556 51.6702C19.3691 51.1776 19.7273 50.7074 20.108 50.2595C17.2418 50.2595 14.3981 51.1104 12.0022 52.8122C8.95694 54.9618 6.9193 58.1862 6.29233 61.8808C5.66536 65.5754 6.44905 69.2477 8.62105 72.3153Z" fill="black"/>
<path d="M173.267 47.0575C174.79 46.4082 175.506 44.6392 174.88 43.1166C173.805 40.5863 172.573 38.1009 171.207 35.705C170.379 34.2495 168.543 33.7569 167.087 34.5854C165.632 35.4139 165.139 37.25 165.968 38.7054C167.222 40.8998 168.341 43.1838 169.326 45.4901C170.334 47.8189 172.887 47.2143 173.267 47.0575Z" fill="black"/>
<g clip-path="url(#clip0_13_3371)">
<path d="M189.974 72.8465C203.797 66.57 225.589 79.9922 234.629 100.749C218.876 116.303 192.869 121.083 182.42 109.846C194.476 132.603 243.449 129.267 270.543 107.81C252.862 76.7328 209.79 56.7983 189.974 72.8465Z" fill="#FFB300"/>
<path d="M189.974 72.8465C203.797 66.57 225.589 79.9922 234.629 100.749C218.876 116.303 192.869 121.083 182.42 109.846C194.476 132.603 243.449 129.267 270.543 107.81C252.862 76.7328 209.79 56.7983 189.974 72.8465Z" fill="url(#paint14_linear_13_3371)"/>
<path d="M196.661 80.8041C193.245 80.1459 190.433 80.0298 187.167 81.5292C185.916 82.1395 184.176 83.0813 183.066 84.4283L183.039 84.5652C182.471 85.3071 181.877 86.1859 181.419 87.091C181.392 87.2278 181.366 87.3646 181.366 87.3646C181.313 87.6383 181.124 87.8856 181.071 88.1592C181.019 88.4329 180.992 88.5697 180.939 88.8433C180.86 89.2538 180.808 89.5275 180.755 89.8011C180.702 90.0748 180.649 90.3484 180.597 90.622L180.412 91.5798C180.359 91.8534 180.307 92.1271 180.254 92.4007C180.201 92.6744 180.175 92.8112 180.233 93.248C180.206 93.3848 180.18 93.5216 180.153 93.6585C180.158 94.3689 180.326 94.9689 180.468 95.7056C181.475 99.3053 184.774 102.779 188.19 103.437C192.563 104.28 195.97 103.517 199.115 100.434C195.294 100.407 193.867 95.3073 197.374 93.287C201.507 90.9614 206.952 92.8619 209.868 96.1197C209.177 90.8782 205.134 82.4366 196.661 80.8041Z" fill="white"/>
<path d="M199.996 77.4734C190.703 75.683 185.587 77.961 182.756 83.0916C182.056 84.5177 181.493 85.9701 181.119 87.1751C181.145 87.0383 181.145 87.0383 181.172 86.9015C181.493 85.9701 182.061 85.2281 182.792 84.3757L182.819 84.2389C183.929 82.8918 185.669 81.95 186.92 81.3397C190.186 79.8403 192.998 79.9564 196.414 80.6146C204.887 82.2471 208.93 90.6887 209.51 95.7671C206.568 92.646 201.15 90.6088 197.017 92.9343C193.483 95.0915 194.91 100.191 198.758 100.081C195.613 103.164 192.343 103.953 187.833 103.085C184.417 102.426 181.144 98.8159 180.11 95.353C179.942 94.753 179.801 94.0163 179.796 93.3058C179.822 93.169 179.849 93.0322 179.875 92.8954C179.717 93.7163 179.669 94.7004 179.621 95.6845L179.595 95.8213C179.516 96.2318 179.6 96.5317 179.657 96.9685C180.106 102.731 184.34 107.236 193.77 109.053C197.869 109.843 203.048 108.712 206.471 106.392C210.52 103.766 214.732 101.03 219.239 97.4997C216.503 92.5736 213.473 88.4421 210.689 84.5002C208.457 81.3739 204.232 78.2896 199.996 77.4734Z" fill="#FFF500"/>
<path d="M189.974 72.8464C187.697 75.1037 184.751 79.3607 182.893 83.118C185.724 77.9873 190.84 75.7093 200.133 77.4997C204.232 78.2896 208.62 81.2635 210.936 84.6896C213.72 88.6316 216.614 92.7368 219.486 97.6891C215.116 101.246 210.767 103.956 206.718 106.581C203.132 109.012 198.09 110.169 193.854 109.353C184.424 107.536 180.19 103.031 179.741 97.2685C179.881 101.694 181.118 107.041 182.284 109.82C192.869 121.083 218.876 116.303 234.602 100.885C225.589 79.992 203.797 66.5699 189.974 72.8464Z" fill="#FFD400"/>
</g>
<defs>
<linearGradient id="paint0_linear_13_3371" x1="199.857" y1="90.4164" x2="154.779" y2="90.4164" gradientUnits="userSpaceOnUse">
<stop stop-color="#47C3FD"/>
<stop offset="0.5288" stop-color="#40FFCA"/>
<stop offset="1" stop-color="#950ECE"/>
</linearGradient>
<linearGradient id="paint1_linear_13_3371" x1="180.637" y1="90.4162" x2="154.78" y2="90.4162" gradientUnits="userSpaceOnUse">
<stop stop-color="#47C3FD"/>
<stop offset="0.5288" stop-color="#40FFCA"/>
<stop offset="1" stop-color="#950ECE"/>
</linearGradient>
<linearGradient id="paint2_linear_13_3371" x1="162.094" y1="105.374" x2="134.186" y2="105.374" gradientUnits="userSpaceOnUse">
<stop stop-color="#47C3FD"/>
<stop offset="0.5288" stop-color="#40FFCA"/>
<stop offset="1" stop-color="#950ECE"/>
</linearGradient>
<linearGradient id="paint3_linear_13_3371" x1="161.673" y1="98.9268" x2="134.186" y2="98.9268" gradientUnits="userSpaceOnUse">
<stop stop-color="#47C3FD"/>
<stop offset="0.5288" stop-color="#40FFCA"/>
<stop offset="1" stop-color="#950ECE"/>
</linearGradient>
<linearGradient id="paint4_linear_13_3371" x1="89.2949" y1="105.374" x2="61.3872" y2="105.374" gradientUnits="userSpaceOnUse">
<stop stop-color="#47C3FD"/>
<stop offset="0.5288" stop-color="#40FFCA"/>
<stop offset="1" stop-color="#950ECE"/>
</linearGradient>
<linearGradient id="paint5_linear_13_3371" x1="89.2952" y1="98.943" x2="61.7505" y2="98.943" gradientUnits="userSpaceOnUse">
<stop stop-color="#47C3FD"/>
<stop offset="0.5288" stop-color="#40FFCA"/>
<stop offset="1" stop-color="#950ECE"/>
</linearGradient>
<linearGradient id="paint6_linear_13_3371" x1="64.2646" y1="73.8634" x2="3.03621" y2="73.8634" gradientUnits="userSpaceOnUse">
<stop stop-color="#47C3FD"/>
<stop offset="0.5288" stop-color="#40FFCA"/>
<stop offset="1" stop-color="#950ECE"/>
</linearGradient>
<linearGradient id="paint7_linear_13_3371" x1="64.2646" y1="78.8958" x2="30.5204" y2="78.8958" gradientUnits="userSpaceOnUse">
<stop stop-color="#47C3FD"/>
<stop offset="0.5288" stop-color="#40FFCA"/>
<stop offset="1" stop-color="#950ECE"/>
</linearGradient>
<linearGradient id="paint8_linear_13_3371" x1="173.44" y1="80.9604" x2="48.7065" y2="80.9604" gradientUnits="userSpaceOnUse">
<stop stop-color="#47C3FD"/>
<stop offset="0.5288" stop-color="#40FFCA"/>
<stop offset="1" stop-color="#950ECE"/>
</linearGradient>
<linearGradient id="paint9_linear_13_3371" x1="93.98" y1="-10.441" x2="121.298" y2="117.64" gradientUnits="userSpaceOnUse">
<stop stop-color="#47C3FD"/>
<stop offset="0.5288" stop-color="#40FFCA"/>
<stop offset="1" stop-color="#950ECE"/>
</linearGradient>
<linearGradient id="paint10_linear_13_3371" x1="77.0421" y1="105.374" x2="49.1343" y2="105.374" gradientUnits="userSpaceOnUse">
<stop stop-color="#47C3FD"/>
<stop offset="0.5288" stop-color="#40FFCA"/>
<stop offset="1" stop-color="#950ECE"/>
</linearGradient>
<linearGradient id="paint11_linear_13_3371" x1="174.001" y1="105.374" x2="146.093" y2="105.374" gradientUnits="userSpaceOnUse">
<stop stop-color="#47C3FD"/>
<stop offset="0.5288" stop-color="#40FFCA"/>
<stop offset="1" stop-color="#950ECE"/>
</linearGradient>
<linearGradient id="paint12_linear_13_3371" x1="174.001" y1="105.374" x2="148.928" y2="105.374" gradientUnits="userSpaceOnUse">
<stop stop-color="#47C3FD"/>
<stop offset="0.5288" stop-color="#40FFCA"/>
<stop offset="1" stop-color="#950ECE"/>
</linearGradient>
<linearGradient id="paint13_linear_13_3371" x1="74.2068" y1="105.374" x2="49.1342" y2="105.374" gradientUnits="userSpaceOnUse">
<stop stop-color="#47C3FD"/>
<stop offset="0.5288" stop-color="#40FFCA"/>
<stop offset="1" stop-color="#950ECE"/>
</linearGradient>
<linearGradient id="paint14_linear_13_3371" x1="305.193" y1="91.7983" x2="147.324" y2="91.1084" gradientUnits="userSpaceOnUse">
<stop stop-color="#47C3FD"/>
<stop offset="0.5288" stop-color="#40FFCA"/>
<stop offset="1" stop-color="#950ECE"/>
</linearGradient>
<clipPath id="clip0_13_3371">
<rect width="57.4076" height="91.8522" fill="white" transform="matrix(0.189189 -0.981941 -0.981941 -0.189189 265.139 135.859)"/>
</clipPath>
</defs>
</svg>
