<svg width="255" height="67" viewBox="0 0 255 67" fill="none" xmlns="http://www.w3.org/2000/svg">
<g clip-path="url(#clip0_13_3259)">
<path d="M219.974 3.4046H33.5863C16.2173 3.4046 1.98315 17.7296 1.98315 35.2023C1.98315 52.7071 16.2173 67 33.5863 67H219.974C237.343 67 251.577 52.675 251.577 35.2023C251.577 17.6975 237.375 3.4046 219.974 3.4046Z" fill="url(#paint0_linear_13_3259)"/>
<path d="M188.275 2.18408H85.5651C84.9573 2.18408 84.4775 1.7023 84.4775 1.09204C84.4775 0.481783 84.9573 0 85.5651 0H188.275C188.883 0 189.363 0.481783 189.363 1.09204C189.331 1.67018 188.851 2.18408 188.275 2.18408Z" fill="white"/>
<path d="M9.884 11.6592C9.59612 11.6592 9.34022 11.5628 9.11632 11.338C8.70049 10.9204 8.70049 10.2459 9.11632 9.79626C15.3218 3.50096 23.6704 0 32.5628 0H65.6693C66.277 0 66.7568 0.481783 66.7568 1.09204C66.7568 1.7023 66.277 2.18408 65.6693 2.18408H32.5628C24.2461 2.18408 16.4733 5.42809 10.6517 11.3701C10.4278 11.5628 10.1719 11.6592 9.884 11.6592Z" fill="white"/>
<path d="M48.4602 66.3576H32.5307C25.2376 66.3576 18.0406 63.8845 12.3149 59.4199C6.65323 55.0197 2.62287 48.8207 0.927561 42.0115C0.767626 41.4334 1.11948 40.8552 1.72723 40.6946C2.303 40.534 2.87877 40.8873 3.0387 41.4976C6.36534 54.8591 18.5204 64.2057 32.5627 64.2057H48.4922C49.0999 64.2057 49.5797 64.6874 49.5797 65.2977C49.5797 65.908 49.0679 66.3576 48.4602 66.3576Z" fill="white"/>
<path d="M1.08756 33.4036C0.479804 33.4036 0 32.9219 0 32.3116V31.8941C0 25.3097 2.04716 18.9823 5.91759 13.5863C6.26944 13.1045 6.94117 12.976 7.42097 13.3293C7.90078 13.6827 8.02873 14.3571 7.67687 14.8389C4.06234 19.9137 2.17511 25.7915 2.17511 31.9262V32.3437C2.17511 32.9219 1.66332 33.4036 1.08756 33.4036Z" fill="white"/>
<path d="M111.155 66.3576H51.4991C50.8913 66.3576 50.4115 65.8759 50.4115 65.2656C50.4115 64.6553 50.8913 64.1736 51.4991 64.1736H111.155C111.762 64.1736 112.242 64.6553 112.242 65.2656C112.242 65.8759 111.73 66.3576 111.155 66.3576Z" fill="white"/>
<path d="M185.108 66.3576H121.199C120.591 66.3576 120.111 65.8759 120.111 65.2656C120.111 64.6553 120.591 64.1736 121.199 64.1736H185.108C185.716 64.1736 186.196 64.6553 186.196 65.2656C186.196 65.8759 185.684 66.3576 185.108 66.3576Z" fill="white"/>
<path d="M222.437 66.3576H204.716C204.109 66.3576 203.629 65.8759 203.629 65.2656C203.629 64.6553 204.109 64.1736 204.716 64.1736H222.437C233.985 64.1736 244.764 57.5571 249.818 47.279C250.074 46.733 250.746 46.5082 251.257 46.7972C251.801 47.0542 252.025 47.7287 251.737 48.2426C246.3 59.2594 234.816 66.3576 222.437 66.3576Z" fill="white"/>
<path d="M253.017 42.8145C252.921 42.8145 252.825 42.8145 252.761 42.7824C252.185 42.6218 251.833 42.0436 251.993 41.4655C252.409 39.7953 252.697 38.0609 252.793 36.3265C252.825 35.7162 253.337 35.2666 253.944 35.2987C254.552 35.3308 255 35.8447 254.968 36.455C254.84 38.3179 254.552 40.1807 254.104 41.9794C253.912 42.4933 253.497 42.8145 253.017 42.8145Z" fill="white"/>
<path d="M253.912 33.5321C253.305 33.5321 252.825 33.0504 252.825 32.4401V31.9262C252.825 15.5134 239.198 2.15198 222.437 2.15198H205.484C204.876 2.15198 204.397 1.6702 204.397 1.05994C204.397 0.449679 204.876 -0.0321045 205.484 -0.0321045H222.437C240.382 -0.0321045 255 14.2929 255 31.8941V32.408C255 33.0504 254.488 33.5321 253.912 33.5321Z" fill="white"/>
<path d="M200.75 2.18408H192.274C191.666 2.18408 191.186 1.7023 191.186 1.09204C191.186 0.481783 191.666 0 192.274 0H200.75C201.358 0 201.838 0.481783 201.838 1.09204C201.838 1.67018 201.358 2.18408 200.75 2.18408Z" fill="white"/>
<path d="M40.6874 55.6621C28.1805 55.6621 18.0087 45.4483 18.0087 32.8898C18.0087 20.3313 28.1805 10.1175 40.6874 10.1175C53.1943 10.1175 63.3662 20.3313 63.3662 32.8898C63.3662 45.4483 53.1943 55.6621 40.6874 55.6621ZM40.6874 11.884C29.1401 11.884 19.736 21.327 19.736 32.9219C19.736 44.5168 29.1401 53.9598 40.6874 53.9598C52.2347 53.9598 61.6389 44.5168 61.6389 32.9219C61.6389 21.327 52.2347 11.884 40.6874 11.884Z" fill="white"/>
<path d="M33.3944 22.162V43.489C33.3944 45.127 35.2177 46.0906 36.5611 45.1913L52.4586 34.5278C53.6741 33.7248 53.6741 31.9262 52.4586 31.1232L36.5611 20.4597C35.2177 19.5604 33.3944 20.524 33.3944 22.162Z" fill="white"/>
<path d="M84.4785 37.124L81.2617 37.0713L81.0771 40.9209C78.4697 41.0264 76.8291 41.0791 76.1553 41.0791C75.4814 41.0791 75.1006 41.0674 75.0127 41.0439C75.0303 40.833 75.0449 40.5195 75.0566 40.1035L75.083 38.627C75.1123 37.8066 75.1943 34.3848 75.3291 28.3613C78.3818 28.1855 81.5049 28.0977 84.6982 28.0977C86.9189 28.0977 88.627 28.4082 89.8223 29.0293C91.3691 29.8379 92.1396 31.0771 92.1338 32.7471C92.1338 35.665 89.582 37.124 84.4785 37.124ZM85.8584 32.6855C85.8584 32.1406 85.668 31.8125 85.2871 31.7012C84.9121 31.5898 84.3936 31.5342 83.7314 31.5342C83.0752 31.5342 82.3281 31.5781 81.4902 31.666C81.4082 32.5859 81.3672 33.3857 81.3672 34.0654C81.4609 34.1006 82.0762 34.1182 83.2129 34.1182C84.9766 34.1182 85.8584 33.6406 85.8584 32.6855ZM108.938 41.0527H96.5723C95.5938 41.0527 94.8496 41.0352 94.3398 41L94.375 38.8643L94.4453 35.9902C94.457 35.8262 94.5068 34.6924 94.5947 32.5889C94.6885 30.4795 94.7588 29.0791 94.8057 28.3877C95.6904 28.2881 96.7861 28.2383 98.0928 28.2383C99.4053 28.2383 100.489 28.2441 101.345 28.2559L101.143 32.6504C101.131 33.2305 101.058 34.959 100.923 37.8359L107.699 37.6777C108.379 37.6777 108.933 37.71 109.36 37.7744C109.36 38.1494 109.313 38.6387 109.22 39.2422L108.938 41.0527ZM120.654 36.2539C120.016 34.1973 119.597 32.7881 119.397 32.0264C119.069 33.0576 118.744 33.9893 118.422 34.8213C118.1 35.6533 117.915 36.1309 117.868 36.2539H120.654ZM116.55 39.4795L115.891 41.1318C115.592 41.1729 115.296 41.1934 115.003 41.1934C114.71 41.1934 113.21 41.1289 110.503 41C111.177 39.5879 113.052 35.3984 116.128 28.4316C116.497 28.4199 117.32 28.3877 118.598 28.335C119.881 28.2764 120.997 28.2471 121.946 28.2471C122.896 28.2471 123.549 28.3057 123.906 28.4229C123.941 28.54 125.479 32.1318 128.521 39.1982L129.259 40.9209C125.532 41.1494 123.631 41.2637 123.555 41.2637C123.484 41.2637 123.106 41.2461 122.421 41.2109C122.157 40.7363 121.932 40.1826 121.744 39.5498C121.369 39.5029 119.638 39.4795 116.55 39.4795ZM140.816 28.3086C140.922 28.291 141.988 28.2822 144.016 28.2822C146.049 28.2822 147.065 28.2969 147.065 28.3262C147.065 28.3555 147.042 28.4053 146.995 28.4756L146.863 28.6953L141.361 36.0693L141.133 40.9297L139.911 40.9824L134.937 41.0879C134.872 40.6895 134.84 39.1572 134.84 36.4912L129.566 28.3438L136.035 28.1855L138.435 31.7539L140.816 28.3086ZM167.746 32.4043C166.275 32.041 164.872 31.8594 163.536 31.8594C161.386 31.8594 160.021 32.4395 159.44 33.5996C159.265 33.9512 159.177 34.3525 159.177 34.8037C159.177 35.7881 159.438 36.5381 159.959 37.0537C160.48 37.5693 161.189 37.8271 162.086 37.8271C162.666 37.8271 163.149 37.71 163.536 37.4756C163.929 37.2412 164.216 36.9482 164.397 36.5967H162.306L162.42 34.0566C162.467 34.0625 163.53 34.0771 165.61 34.1006C167.696 34.1182 168.807 34.1416 168.941 34.1709V41L167.289 41.0879L167.025 39.2949C166.516 39.9219 165.663 40.4287 164.468 40.8154C163.272 41.2021 162.162 41.3955 161.137 41.3955C160.111 41.3955 159.171 41.3164 158.315 41.1582C157.46 41 156.663 40.751 155.925 40.4111C155.187 40.0654 154.548 39.6465 154.009 39.1543C153.476 38.6562 153.057 38.0469 152.752 37.3262C152.447 36.6055 152.295 35.7734 152.295 34.8301C152.295 33.8867 152.488 33.0137 152.875 32.2109C153.262 31.4082 153.783 30.7461 154.439 30.2246C156.309 28.7305 159.106 27.9834 162.833 27.9834C163.46 27.9834 164.289 28.0391 165.32 28.1504C166.357 28.2559 167.166 28.3818 167.746 28.5283V32.4043ZM181.281 36.2539C180.643 34.1973 180.224 32.7881 180.024 32.0264C179.696 33.0576 179.371 33.9893 179.049 34.8213C178.727 35.6533 178.542 36.1309 178.495 36.2539H181.281ZM177.177 39.4795L176.518 41.1318C176.219 41.1729 175.923 41.1934 175.63 41.1934C175.337 41.1934 173.837 41.1289 171.13 41C171.804 39.5879 173.679 35.3984 176.755 28.4316C177.124 28.4199 177.947 28.3877 179.225 28.335C180.508 28.2764 181.624 28.2471 182.573 28.2471C183.522 28.2471 184.176 28.3057 184.533 28.4229C184.568 28.54 186.106 32.1318 189.147 39.1982L189.886 40.9209C186.159 41.1494 184.258 41.2637 184.182 41.2637C184.111 41.2637 183.733 41.2461 183.048 41.2109C182.784 40.7363 182.559 40.1826 182.371 39.5498C181.996 39.5029 180.265 39.4795 177.177 39.4795ZM213.019 40.9736L207.552 41.0791C207.329 38.8467 207.194 37.3027 207.147 36.4473L207.068 35.0586L203.43 40.8154C201.93 40.8154 201.071 40.8096 200.854 40.7979C199.683 38.4775 198.812 36.6846 198.244 35.4189L197.603 41.0352C197.011 41.0527 196.155 41.0615 195.036 41.0615C193.923 41.0615 192.807 41.0293 191.688 40.9648L191.802 39.4795C191.896 38.5127 192.109 34.8096 192.443 28.3701H192.487C195.071 28.3701 197.263 28.3408 199.062 28.2822L199.378 28.959L202.208 34.1533L205.671 28.2207L212.113 28.2031C212.154 28.8242 212.339 31.3906 212.667 35.9023L212.957 39.8926L213.019 40.9736ZM231.317 41.0791H225.719L215.673 41.0088L215.822 37.915C216.121 31.71 216.271 28.5283 216.271 28.3701C216.974 28.3408 217.434 28.3262 217.65 28.3262H226.545C228.52 28.3262 230.116 28.3145 231.335 28.291L230.975 31.6045C229.557 31.7334 226.732 31.7979 222.502 31.7979C222.484 31.9385 222.464 32.1758 222.44 32.5098C222.423 32.8438 222.408 33.0957 222.396 33.2656C224.084 33.2363 225.262 33.2217 225.93 33.2217L227.863 33.2744C227.863 33.5322 227.822 33.9775 227.74 34.6104C227.664 35.2432 227.579 35.7324 227.485 36.0781C227.392 36.1016 226.662 36.1133 225.297 36.1133H222.282L222.186 37.8271L231.414 37.9326C231.414 39.04 231.396 39.8311 231.361 40.3057C231.332 40.7744 231.317 41.0322 231.317 41.0791Z" fill="white"/>
</g>
<defs>
<linearGradient id="paint0_linear_13_3259" x1="1.98568" y1="35.1991" x2="251.589" y2="35.1991" gradientUnits="userSpaceOnUse">
<stop stop-color="#2AF598"/>
<stop offset="0.2264" stop-color="#21E2AE"/>
<stop offset="0.7249" stop-color="#0FD990"/>
<stop offset="0.9785" stop-color="#08EA3A"/>
</linearGradient>
<clipPath id="clip0_13_3259">
<rect width="255" height="67" fill="white"/>
</clipPath>
</defs>
</svg>
