<svg width="12" height="17" viewBox="0 0 12 17" fill="none" xmlns="http://www.w3.org/2000/svg">
<g id="Group 8642">
<path id="Arrow 3" d="M5.46967 16.5303C5.76256 16.8232 6.23744 16.8232 6.53033 16.5303L11.3033 11.7574C11.5962 11.4645 11.5962 10.9896 11.3033 10.6967C11.0104 10.4038 10.5355 10.4038 10.2426 10.6967L6 14.9393L1.75736 10.6967C1.46447 10.4038 0.989593 10.4038 0.696699 10.6967C0.403806 10.9896 0.403806 11.4645 0.696699 11.7574L5.46967 16.5303ZM5.25 15V16H6.75V15H5.25Z" fill="white" fill-opacity="0.2"/>
<path id="Arrow 4" d="M6.53033 0.46967C6.23744 0.176777 5.76256 0.176777 5.46967 0.46967L0.696699 5.24264C0.403806 5.53553 0.403806 6.01041 0.696699 6.3033C0.989593 6.59619 1.46447 6.59619 1.75736 6.3033L6 2.06066L10.2426 6.3033C10.5355 6.59619 11.0104 6.59619 11.3033 6.3033C11.5962 6.01041 11.5962 5.53553 11.3033 5.24264L6.53033 0.46967ZM6.75 2V1L5.25 1V2L6.75 2Z" fill="white" fill-opacity="0.2"/>
</g>
</svg>
