<svg width="1280" height="816" viewBox="0 0 1280 816" fill="none" xmlns="http://www.w3.org/2000/svg">
<rect width="1280" height="816" fill="#060606"/>
<path d="M911 81L836.323 188.895H552.35L475.675 297.289L399 188.895L475.925 81.2498L911 81Z" fill="url(#paint0_linear_314_252)"/>
<path d="M581.322 228.856H807.601L731.925 336.75H655.25L475.675 593L399 485.355L581.322 228.856Z" fill="url(#paint1_linear_314_252)"/>
<path d="M911 81L836.323 188.895H552.35L475.675 297.289L399 188.895L475.925 81.2498L911 81Z" stroke="black"/>
<path d="M581.322 228.856H807.601L731.925 336.75H655.25L475.675 593L399 485.355L581.322 228.856Z" stroke="black"/>
<defs>
<linearGradient id="paint0_linear_314_252" x1="655" y1="-32.1395" x2="655" y2="711.634" gradientUnits="userSpaceOnUse">
<stop stop-color="#800080"/>
<stop offset="1" stop-color="#0074D9"/>
</linearGradient>
<linearGradient id="paint1_linear_314_252" x1="655" y1="-32.1395" x2="655" y2="711.634" gradientUnits="userSpaceOnUse">
<stop stop-color="#800080"/>
<stop offset="1" stop-color="#0074D9"/>
</linearGradient>
</defs>
</svg>
