<svg width="25" height="24" viewBox="0 0 25 24" fill="none" xmlns="http://www.w3.org/2000/svg">
<g id="Group">
<path id="Vector" d="M12.3117 23.8721C19.0595 23.8721 24.5297 18.5855 24.5297 12.0641C24.5297 5.54272 19.0595 0.256104 12.3117 0.256104C5.56384 0.256104 0.0936279 5.54272 0.0936279 12.0641C0.0936279 18.5855 5.56384 23.8721 12.3117 23.8721Z" fill="#F7931A"/>
<path id="Vector_2" d="M17.8014 10.6028C18.0412 9.05599 16.8216 8.22427 15.1554 7.66929L15.696 5.57337L14.3765 5.25603L13.8496 7.2966C13.5029 7.21247 13.1471 7.13424 12.792 7.05601L13.3227 5.00216L12.0031 4.68408L11.4625 6.77926C11.1754 6.7158 10.8928 6.6538 10.6194 6.58738L10.621 6.58074L8.80048 6.14163L8.44922 7.50398C8.44922 7.50398 9.42895 7.72095 9.40833 7.73424C9.94287 7.86339 10.0391 8.20508 10.0231 8.47666L9.40757 10.8641C9.44422 10.8729 9.49157 10.8862 9.54502 10.9062L9.40528 10.8729L8.54238 14.2176C8.47671 14.374 8.311 14.6094 7.93682 14.5201C7.95057 14.5386 6.9777 14.2892 6.9777 14.2892L6.32251 15.7489L8.04067 16.1629C8.35987 16.2404 8.67296 16.3216 8.9807 16.3976L8.43471 18.5172L9.75349 18.8345L10.2941 16.7386C10.6546 16.8323 11.0043 16.9194 11.3464 17.002L10.8073 19.0891L12.1269 19.4064L12.6728 17.2913C14.924 17.7031 16.6162 17.5371 17.3287 15.5696C17.9029 13.9858 17.3004 13.0715 16.116 12.4759C16.9789 12.284 17.628 11.7357 17.8014 10.6028ZM14.785 14.6899C14.378 16.2744 11.6175 15.4176 10.7225 15.2028L11.448 12.3947C12.343 12.6109 15.2119 13.0382 14.785 14.6899ZM15.1936 10.58C14.8217 12.0213 12.5247 11.2884 11.7802 11.1091L12.4369 8.56301C13.1814 8.74234 15.5815 9.07666 15.1936 10.58Z" fill="white"/>
</g>
</svg>
