<svg width="16" height="17" viewBox="0 0 16 17" fill="none" xmlns="http://www.w3.org/2000/svg">
<g id="Group 2936">
<path id="Vector 211" d="M15 4.5H1C0.723858 4.5 0.5 4.27614 0.5 4V3.36038C0.5 3.14516 0.637715 2.95409 0.841886 2.88604L7.84189 0.552705C7.94452 0.518493 8.05548 0.518493 8.15811 0.552705L15.1581 2.88604C15.3623 2.9541 15.5 3.14516 15.5 3.36038V4C15.5 4.27614 15.2761 4.5 15 4.5Z" stroke="white" stroke-linecap="round"/>
<rect id="Rectangle 2180" width="15" height="2" rx="0.5" transform="matrix(1 0 0 -1 0.5 16.5)" stroke="white"/>
<rect id="Rectangle 2181" width="2" height="6" rx="0.5" transform="matrix(1 0 0 -1 2 12.5)" stroke="white"/>
<rect id="Rectangle 2182" width="2" height="6" rx="0.5" transform="matrix(1 0 0 -1 12 12.5)" stroke="white"/>
<rect id="Rectangle 2183" width="2" height="6" rx="0.5" transform="matrix(1 0 0 -1 7 12.5)" stroke="white"/>
</g>
</svg>
