<svg width="30" height="30" viewBox="0 0 30 30" fill="none" xmlns="http://www.w3.org/2000/svg">
<g id="Group">
<g id="FLP">
<g id="Ellipse 1" style="mix-blend-mode:color-dodge">
<path d="M29.5 15C29.5 23.0081 23.0081 29.5 15 29.5C6.99187 29.5 0.5 23.0081 0.5 15C0.5 6.99187 6.99187 0.5 15 0.5C23.0081 0.5 29.5 6.99187 29.5 15Z" fill="#3C3A8C"/>
<path d="M29.5 15C29.5 23.0081 23.0081 29.5 15 29.5C6.99187 29.5 0.5 23.0081 0.5 15C0.5 6.99187 6.99187 0.5 15 0.5C23.0081 0.5 29.5 6.99187 29.5 15Z" stroke="#3C3A8C"/>
</g>
<g id="e t&#195;&#173;m">
<rect id="e" x="9" y="4" width="16.75" height="4.35" fill="#F2F3F8"/>
<rect id="e_2" x="9" y="21.5" width="4.75" height="4.25" fill="#F8F8FB"/>
<rect id="e_3" x="9" y="12.7" width="11.6224" height="4.35" fill="#E3E3F3"/>
</g>
</g>
</g>
</svg>
