<svg width="35" height="21" viewBox="0 0 35 21" fill="none" xmlns="http://www.w3.org/2000/svg">
<rect x="0.5" y="0.5" width="34" height="20" rx="5.5" stroke="#363636"/>
<g clip-path="url(#clip0_384_550)">
<path d="M29.2031 2.625L22.96 7.26186L24.1145 4.52618L29.2031 2.625Z" fill="#E2761B" stroke="#E2761B" stroke-linecap="round" stroke-linejoin="round"/>
<path d="M14.7908 2.625L20.9837 7.30578L19.8857 4.52618L14.7908 2.625Z" fill="#E4761B" stroke="#E4761B" stroke-linecap="round" stroke-linejoin="round"/>
<path d="M26.9569 13.3733L25.2942 15.9207L28.8518 16.8996L29.8746 13.4298L26.9569 13.3733Z" fill="#E4761B" stroke="#E4761B" stroke-linecap="round" stroke-linejoin="round"/>
<path d="M14.1318 13.4298L15.1483 16.8996L18.706 15.9207L17.0432 13.3733L14.1318 13.4298Z" fill="#E4761B" stroke="#E4761B" stroke-linecap="round" stroke-linejoin="round"/>
<path d="M18.5053 9.06893L17.5139 10.5685L21.0465 10.7254L20.921 6.92932L18.5053 9.06893Z" fill="#E4761B" stroke="#E4761B" stroke-linecap="round" stroke-linejoin="round"/>
<path d="M25.4886 9.06891L23.0415 6.88538L22.96 10.7254L26.4862 10.5685L25.4886 9.06891Z" fill="#E4761B" stroke="#E4761B" stroke-linecap="round" stroke-linejoin="round"/>
<path d="M18.7061 15.9207L20.8268 14.8854L18.9947 13.4548L18.7061 15.9207Z" fill="#E4761B" stroke="#E4761B" stroke-linecap="round" stroke-linejoin="round"/>
<path d="M23.1672 14.8854L25.2943 15.9207L24.9994 13.4548L23.1672 14.8854Z" fill="#E4761B" stroke="#E4761B" stroke-linecap="round" stroke-linejoin="round"/>
<path d="M25.2941 15.9207L23.167 14.8854L23.3364 16.272L23.3176 16.8556L25.2941 15.9207Z" fill="#D7C1B3" stroke="#D7C1B3" stroke-linecap="round" stroke-linejoin="round"/>
<path d="M18.7058 15.9207L20.6823 16.8556L20.6697 16.272L20.8266 14.8854L18.7058 15.9207Z" fill="#D7C1B3" stroke="#D7C1B3" stroke-linecap="round" stroke-linejoin="round"/>
<path d="M20.7137 12.5388L18.9443 12.018L20.193 11.447L20.7137 12.5388Z" fill="#233447" stroke="#233447" stroke-linecap="round" stroke-linejoin="round"/>
<path d="M23.28 12.5388L23.8008 11.447L25.0557 12.018L23.28 12.5388Z" fill="#233447" stroke="#233447" stroke-linecap="round" stroke-linejoin="round"/>
<path d="M18.706 15.9206L19.0071 13.3732L17.0432 13.4296L18.706 15.9206Z" fill="#CD6116" stroke="#CD6116" stroke-linecap="round" stroke-linejoin="round"/>
<path d="M24.9929 13.3732L25.2941 15.9206L26.9568 13.4296L24.9929 13.3732Z" fill="#CD6116" stroke="#CD6116" stroke-linecap="round" stroke-linejoin="round"/>
<path d="M26.4862 10.5685L22.96 10.7253L23.2862 12.5387L23.807 11.4469L25.0619 12.0179L26.4862 10.5685Z" fill="#CD6116" stroke="#CD6116" stroke-linecap="round" stroke-linejoin="round"/>
<path d="M18.9445 12.0179L20.1994 11.4469L20.7139 12.5387L21.0465 10.7253L17.5139 10.5685L18.9445 12.0179Z" fill="#CD6116" stroke="#CD6116" stroke-linecap="round" stroke-linejoin="round"/>
<path d="M17.5137 10.5685L18.9945 13.4548L18.9443 12.0179L17.5137 10.5685Z" fill="#E4751F" stroke="#E4751F" stroke-linecap="round" stroke-linejoin="round"/>
<path d="M25.062 12.0179L24.9993 13.4548L26.4863 10.5685L25.062 12.0179Z" fill="#E4751F" stroke="#E4751F" stroke-linecap="round" stroke-linejoin="round"/>
<path d="M21.0462 10.7253L20.7136 12.5387L21.1277 14.6783L21.2219 11.861L21.0462 10.7253Z" fill="#E4751F" stroke="#E4751F" stroke-linecap="round" stroke-linejoin="round"/>
<path d="M22.9599 10.7253L22.7905 11.8548L22.8658 14.6783L23.2862 12.5387L22.9599 10.7253Z" fill="#E4751F" stroke="#E4751F" stroke-linecap="round" stroke-linejoin="round"/>
<path d="M23.2864 12.5387L22.866 14.6783L23.1671 14.8854L24.9993 13.4548L25.062 12.0179L23.2864 12.5387Z" fill="#F6851B" stroke="#F6851B" stroke-linecap="round" stroke-linejoin="round"/>
<path d="M18.9443 12.0179L18.9945 13.4548L20.8267 14.8854L21.1279 14.6783L20.7137 12.5387L18.9443 12.0179Z" fill="#F6851B" stroke="#F6851B" stroke-linecap="round" stroke-linejoin="round"/>
<path d="M23.3176 16.8556L23.3364 16.272L23.1795 16.134H20.814L20.6697 16.272L20.6823 16.8556L18.7058 15.9207L19.396 16.4854L20.7952 17.4579H23.1984L24.6039 16.4854L25.294 15.9207L23.3176 16.8556Z" fill="#C0AD9E" stroke="#C0AD9E" stroke-linecap="round" stroke-linejoin="round"/>
<path d="M23.1672 14.8854L22.866 14.6783H21.128L20.8268 14.8854L20.6699 16.2721L20.8142 16.134H23.1797L23.3366 16.2721L23.1672 14.8854Z" fill="#161616" stroke="#161616" stroke-linecap="round" stroke-linejoin="round"/>
<path d="M29.4666 7.56304L29.9999 5.00304L29.2031 2.625L23.167 7.105L25.4886 9.06892L28.7701 10.0289L29.498 9.18186L29.1842 8.95598L29.6862 8.49794L29.2972 8.19677L29.7992 7.81402L29.4666 7.56304Z" fill="#763D16" stroke="#763D16" stroke-linecap="round" stroke-linejoin="round"/>
<path d="M14 5.00304L14.5333 7.56304L14.1945 7.81402L14.6965 8.19677L14.3137 8.49794L14.8157 8.95598L14.502 9.18186L15.2235 10.0289L18.5051 9.06892L20.8267 7.105L14.7906 2.625L14 5.00304Z" fill="#763D16" stroke="#763D16" stroke-linecap="round" stroke-linejoin="round"/>
<path d="M28.7702 10.029L25.4887 9.06897L26.4863 10.5686L24.9993 13.4549L26.9569 13.4298H29.8746L28.7702 10.029Z" fill="#F6851B" stroke="#F6851B" stroke-linecap="round" stroke-linejoin="round"/>
<path d="M18.5052 9.06897L15.2236 10.029L14.1318 13.4298H17.0432L18.9946 13.4549L17.5138 10.5686L18.5052 9.06897Z" fill="#F6851B" stroke="#F6851B" stroke-linecap="round" stroke-linejoin="round"/>
<path d="M22.96 10.7253L23.1671 7.10495L24.1208 4.52612H19.8855L20.8267 7.10495L21.0463 10.7253L21.1216 11.8673L21.1279 14.6783H22.8659L22.8784 11.8673L22.96 10.7253Z" fill="#F6851B" stroke="#F6851B" stroke-linecap="round" stroke-linejoin="round"/>
</g>
<path d="M8.63232 8.36255L8.63232 13.0875" stroke="#D9D9D9" stroke-linecap="square" stroke-linejoin="round"/>
<path d="M10.9485 10.725L6.31613 10.725" stroke="#D9D9D9" stroke-linecap="square" stroke-linejoin="round"/>
<defs>
<clipPath id="clip0_384_550">
<rect width="16" height="16" fill="white" transform="translate(14 2)"/>
</clipPath>
</defs>
</svg>
