<svg width="23" height="18" viewBox="0 0 23 18"
    xmlns="http://www.w3.org/2000/svg"
    xmlns:xlink="http://www.w3.org/1999/xlink">
    <defs>
        <path id="hayynjd6ja" d="M0 0h22.81v18H0z"/>
    </defs>
    <g fill="none" fill-rule="evenodd">
        <g>
            <mask id="1tbhuxs3sb">
                <use xlink:href="#hayynjd6ja"/>
            </mask>
            <path d="M16.083 11.037c-.854 0-1.737.002-2.606-.001-1-.004-1.74-.534-1.98-1.419-.167-.621-.098-1.23.195-1.716.272-.45.714-.763 1.243-.882.167-.037.352-.056.567-.056 1.454-.002 2.925-.003 4.38-.003h3.163c.32 0 .354.034.354.357V10.705c0 .291-.041.331-.335.331h-3.838l-1.143.001zm-4.69 5.516H8.824c-.526 0-1.061-.002-1.579-.005a147.775 147.775 0 0 0-3.716.015 2.098 2.098 0 0 1-2.125-2.122c.012-2.537.01-5.117.008-7.61L1.41 3.525c0-.593.208-1.13.585-1.514.378-.385.911-.597 1.501-.598a7084.962 7084.962 0 0 1 14.38 0c1.026 0 1.828.631 2.044 1.606.037.164.043.342.044.48.004.524.003 1.057.002 1.573v.383a.76.76 0 0 1-.005.074H17.883c-1.453-.001-2.956-.002-4.434.002-1.668.004-2.985 1.01-3.355 2.564-.243 1.02-.076 2.03.471 2.845a3.359 3.359 0 0 0 2.305 1.447c.21.033.424.033.633.034h6.461c0 .22.002.443.004.66.006.502.01 1.022-.014 1.53-.055 1.142-.904 1.94-2.064 1.94-2.166.002-4.332.002-6.498.001zm11.4-9.77a.515.515 0 0 0-.02-.028l-.01-.015c-.194-.678-.642-1.072-1.367-1.201a2.246 2.246 0 0 1-.005-.128v-.768l-.001-1.169C21.383 1.792 20.276.425 18.635.072a3.255 3.255 0 0 0-.679-.069C12.933 0 8.043 0 3.42.002A3.42 3.42 0 0 0 .046 2.848c-.005.025-.014.053-.025.082a1.456 1.456 0 0 0-.016.05L0 2.996v12.002l.003.013.034.146c.025.107.05.217.084.325.448 1.397 1.4 2.23 2.828 2.477.008 0 .024.009.038.016a.68.68 0 0 0 .037.017l.02.008h15.3l.013-.003.14-.032c.1-.023.203-.047.305-.073A3.45 3.45 0 0 0 21.39 14.6c.005-.46.004-.929.003-1.381l-.002-.623v-.153l.03-.006c.079-.017.154-.032.23-.055.563-.174.935-.543 1.103-1.097.009-.029.02-.058.032-.09l.018-.045.007-.019v-4.32l-.017-.027z" fill="#FFF" mask="url(#1tbhuxs3sb)"/>
        </g>
        <path d="M13.53 7.907h-.004c-.582 0-1.062.47-1.07 1.05-.004.269.108.54.306.744.202.206.475.326.75.329h.013c.292 0 .563-.109.765-.308.203-.2.315-.472.316-.766.002-.616-.44-1.047-1.076-1.05" />
    </g>
</svg>
