<svg width="44" height="44" viewBox="0 0 44 44" fill="none" xmlns="http://www.w3.org/2000/svg">
<rect width="44" height="44" fill="#1E1E1E"/>
<g id="trading" clip-path="url(#clip0_10_79)">
<rect width="1280" height="832" transform="translate(-22 -15)" fill="white"/>
<g id="header">
<g id="Rectangle 3">
<mask id="path-1-inside-1_10_79" fill="white">
<path d="M-22 -15H1258V53H-22V-15Z"/>
</mask>
<path d="M-22 -15H1258V53H-22V-15Z" fill="black"/>
<path d="M1258 52H-22V54H1258V52Z" fill="#363636" mask="url(#path-1-inside-1_10_79)"/>
</g>
<g id="Vector 2">
<path d="M43 1L36.8741 9.85073H13.5795L7.28976 18.7424L1 9.85073L7.31024 1.02049L43 1Z" fill="url(#paint0_linear_10_79)"/>
<path d="M15.9561 13.1288H34.518L28.3102 21.9795H22.0205L7.28976 43L1 34.1698L15.9561 13.1288Z" fill="url(#paint1_linear_10_79)"/>
<path d="M43 1L36.8741 9.85073H13.5795L7.28976 18.7424L1 9.85073L7.31024 1.02049L43 1Z" stroke="black"/>
<path d="M15.9561 13.1288H34.518L28.3102 21.9795H22.0205L7.28976 43L1 34.1698L15.9561 13.1288Z" stroke="black"/>
</g>
</g>
</g>
<defs>
<linearGradient id="paint0_linear_10_79" x1="22" y1="-8.28098" x2="22" y2="52.7317" gradientUnits="userSpaceOnUse">
<stop stop-color="#800080"/>
<stop offset="1" stop-color="#0074D9"/>
</linearGradient>
<linearGradient id="paint1_linear_10_79" x1="22" y1="-8.28098" x2="22" y2="52.7317" gradientUnits="userSpaceOnUse">
<stop stop-color="#800080"/>
<stop offset="1" stop-color="#0074D9"/>
</linearGradient>
<clipPath id="clip0_10_79">
<rect width="1280" height="832" fill="white" transform="translate(-22 -15)"/>
</clipPath>
</defs>
</svg>
