<svg width="54" height="55" viewBox="0 0 54 55" fill="none" xmlns="http://www.w3.org/2000/svg">
<g filter="url(#filter0_d_13_3438)">
<circle cx="27" cy="24.5" r="22" fill="#20E1AC"/>
<circle cx="27" cy="24.5" r="22" fill="url(#paint0_linear_13_3438)"/>
</g>
<path d="M36.24 18.7682C35.548 19.0747 34.814 19.2758 34.0625 19.3648C34.8541 18.8911 35.4465 18.1458 35.7293 17.2677C34.9852 17.7094 34.1709 18.0205 33.3218 18.1874C32.9671 17.809 32.5384 17.5075 32.0624 17.3016C31.5863 17.0956 31.0731 16.9897 30.5544 16.9902C28.4606 16.9902 26.7629 18.6875 26.7629 20.7818C26.7629 21.0786 26.7965 21.3683 26.8613 21.646C23.7101 21.4878 20.9165 19.9782 19.0464 17.6841C18.7092 18.2627 18.532 18.9207 18.533 19.5904C18.5325 20.2146 18.6862 20.8293 18.9805 21.3799C19.2748 21.9304 19.7005 22.3997 20.2198 22.7462C19.6178 22.727 19.029 22.5644 18.5026 22.2719C18.5021 22.2878 18.5021 22.3034 18.5021 22.3197C18.5021 24.1562 19.8089 25.6886 21.5431 26.0373C20.9847 26.1884 20.3992 26.2106 19.831 26.1021C20.3134 27.6081 21.7135 28.7046 23.3726 28.7354C22.0296 29.7893 20.3711 30.361 18.6638 30.3585C18.3578 30.3585 18.0562 30.3407 17.7593 30.3054C19.4929 31.4193 21.5105 32.0105 23.5711 32.0085C30.545 32.0085 34.3586 26.2314 34.3586 21.2217C34.3586 21.0575 34.3548 20.8936 34.3476 20.7306C35.0903 20.1945 35.7312 19.5298 36.24 18.7682Z" fill="white"/>
<defs>
<filter id="filter0_d_13_3438" x="0" y="0.5" width="54" height="54" filterUnits="userSpaceOnUse" color-interpolation-filters="sRGB">
<feFlood flood-opacity="0" result="BackgroundImageFix"/>
<feColorMatrix in="SourceAlpha" type="matrix" values="0 0 0 0 0 0 0 0 0 0 0 0 0 0 0 0 0 0 127 0" result="hardAlpha"/>
<feOffset dy="3"/>
<feGaussianBlur stdDeviation="2.5"/>
<feComposite in2="hardAlpha" operator="out"/>
<feColorMatrix type="matrix" values="0 0 0 0 0 0 0 0 0 0 0 0 0 0 0 0 0 0 0.12 0"/>
<feBlend mode="normal" in2="BackgroundImageFix" result="effect1_dropShadow_13_3438"/>
<feBlend mode="normal" in="SourceGraphic" in2="effect1_dropShadow_13_3438" result="shape"/>
</filter>
<linearGradient id="paint0_linear_13_3438" x1="5.00045" y1="24.4978" x2="49.0021" y2="24.4978" gradientUnits="userSpaceOnUse">
<stop stop-color="#2AF598"/>
<stop offset="0.2264" stop-color="#21E2AE"/>
<stop offset="0.7249" stop-color="#0FD990"/>
<stop offset="0.9785" stop-color="#08EA3A"/>
</linearGradient>
</defs>
</svg>
